<?xml version="1.0" ?><svg viewBox="0 0 64 64" xmlns="http://www.w3.org/2000/svg"><title/><g data-name="Layer 46" id="Layer_46"><circle cx="32" cy="12" r="1"/><path d="M35,47.69v-2.5A6,6,0,0,0,38,40V28a6,6,0,0,0-3-5.19V20.47a9,9,0,1,0-6,0v2.34A6,6,0,0,0,26,28V40a6,6,0,0,0,3,5.19V48a1,1,0,0,0,0,.17,1.07,1.07,0,0,0,0,.53,1,1,0,0,0,1.29.59A4.73,4.73,0,0,1,32,49a5,5,0,1,1-5,5,1,1,0,0,0-2,0,7,7,0,1,0,10-6.31ZM34,29a2,2,0,1,1-2-2A2,2,0,0,1,34,29ZM30,39a2,2,0,1,1,2,2A2,2,0,0,1,30,39ZM32,9a3,3,0,1,1-3,3A3,3,0,0,1,32,9ZM31,20.94a8.36,8.36,0,0,0,2,0v1.15a5.6,5.6,0,0,0-2,0Zm.3,26.12A1,1,0,0,0,31,47V45.91a5.6,5.6,0,0,0,2,0v1.17A6.63,6.63,0,0,0,32,47C31.76,47,31.53,47,31.3,47.06Z"/></g></svg>