<?xml version="1.0" ?><!DOCTYPE svg  PUBLIC '-//W3C//DTD SVG 1.1//EN'  'http://www.w3.org/Graphics/SVG/1.1/DTD/svg11.dtd'><svg height="512px" style="enable-background:new 0 0 512 512;" version="1.1" viewBox="0 0 512 512" width="512px" xml:space="preserve" xmlns="http://www.w3.org/2000/svg" xmlns:xlink="http://www.w3.org/1999/xlink"><g id="C_-_97_x2C__lightbulb_x2C__Bulb_x2C__electrical_x2C__idea_x2C__lamp_x2C__light"><g><polygon points="269.275,247.494 242.703,247.494 242.686,275.246 269.271,275.246   "/><path d="M242.636,353.585c0.225,0.025,0.449,0.054,0.673,0.077c0.214,0.021,0.43,0.044,0.644,0.064    c0.747,0.074,1.497,0.14,2.248,0.2c0.27,0.021,0.54,0.044,0.809,0.063c0.706,0.053,1.414,0.095,2.122,0.135    c0.299,0.017,0.599,0.036,0.898,0.051c0.713,0.034,1.428,0.059,2.144,0.081c0.284,0.009,0.566,0.022,0.851,0.028    c0.988,0.023,1.98,0.038,2.975,0.038c0.996,0,1.988-0.015,2.979-0.038c0.278-0.006,0.557-0.02,0.836-0.028    c0.722-0.021,1.443-0.047,2.162-0.082c0.292-0.014,0.582-0.033,0.873-0.049c0.719-0.04,1.439-0.084,2.155-0.137    c0.257-0.019,0.513-0.04,0.769-0.06c0.77-0.063,1.537-0.13,2.302-0.204c0.194-0.02,0.39-0.04,0.585-0.06    c0.202-0.021,0.402-0.048,0.604-0.07l0.007-68.979H242.68L242.636,353.585z"/><rect height="26.382" width="44.512" x="233.748" y="444.136"/><path d="M256,113.423c-66.741,0-121.039,54.034-121.039,120.452c0,58.683,42.396,107.69,98.305,118.309l0.043-67.566h-13.23    c-2.587,0-4.686-2.098-4.686-4.686s2.099-4.686,4.686-4.686h13.236l0.017-27.752h-13.253c-2.587,0-4.686-2.097-4.686-4.685    c0-2.588,2.099-4.686,4.686-4.686h13.259l0.019-28.719l-34.037-25.407c-2.074-1.549-2.5-4.484-0.953-6.558    c1.548-2.073,4.484-2.5,6.558-0.952l35.92,26.813c1.186,0.885,1.883,2.278,1.882,3.757l-0.019,31.064h26.566l0.003-31.067    c0-1.479,0.698-2.871,1.883-3.755l35.919-26.813c2.074-1.547,5.01-1.122,6.558,0.952s1.122,5.009-0.952,6.558l-34.036,25.408    l-0.003,28.718h13.281c2.588,0,4.686,2.097,4.686,4.686c0,2.588-2.098,4.685-4.686,4.685h-13.281l-0.004,27.752h13.285    c2.588,0,4.686,2.098,4.686,4.686s-2.098,4.686-4.686,4.686h-13.285l-0.007,67.584c55.96-10.578,98.404-59.608,98.404-118.326    C377.04,167.457,322.742,113.423,256,113.423z"/><path d="M256,86.61c2.588,0,4.686-2.098,4.686-4.686V46.168c0-2.588-2.098-4.686-4.686-4.686c-2.587,0-4.686,2.097-4.686,4.686    v35.756C251.314,84.512,253.413,86.61,256,86.61z"/><path d="M329.984,106.333c0.74,0.429,1.549,0.633,2.347,0.633c1.616,0,3.188-0.836,4.058-2.335l17.963-30.962    c1.299-2.238,0.537-5.105-1.701-6.404c-2.236-1.297-5.105-0.536-6.404,1.702L328.283,99.93    C326.984,102.168,327.746,105.035,329.984,106.333z"/><path d="M388.227,162.585c0.791,0,1.594-0.201,2.33-0.624l31.104-17.878c2.243-1.29,3.017-4.154,1.728-6.397    c-1.289-2.244-4.152-3.017-6.396-1.728l-31.104,17.878c-2.244,1.29-3.018,4.154-1.728,6.397    C385.026,161.741,386.604,162.585,388.227,162.585z"/><path d="M444.591,229.189h-35.92c-2.589,0-4.686,2.097-4.686,4.686c0,2.588,2.097,4.686,4.686,4.686h35.92    c2.588,0,4.685-2.098,4.685-4.686C449.275,231.287,447.179,229.189,444.591,229.189z"/><path d="M421.662,323.665l-31.104-17.88c-2.247-1.289-5.108-0.516-6.397,1.727c-1.29,2.244-0.517,5.108,1.727,6.397l31.104,17.88    c0.736,0.423,1.539,0.625,2.331,0.625c1.622,0,3.199-0.844,4.066-2.352C424.678,327.818,423.904,324.954,421.662,323.665z"/><path d="M121.451,305.785l-31.105,17.88c-2.244,1.289-3.017,4.153-1.728,6.397c0.867,1.508,2.444,2.352,4.067,2.352    c0.792,0,1.595-0.202,2.331-0.625l31.105-17.88c2.243-1.289,3.016-4.153,1.727-6.397    C126.558,305.27,123.695,304.496,121.451,305.785z"/><path d="M108.014,233.875c0-2.588-2.097-4.686-4.686-4.686H67.409c-2.587,0-4.686,2.097-4.686,4.686    c0,2.588,2.099,4.686,4.686,4.686h35.919C105.917,238.561,108.014,236.463,108.014,233.875z"/><path d="M126.121,153.836l-31.105-17.878c-2.245-1.29-5.107-0.516-6.397,1.728c-1.29,2.243-0.516,5.107,1.728,6.397l31.105,17.878    c0.736,0.423,1.539,0.624,2.33,0.624c1.623,0,3.2-0.844,4.067-2.352C129.137,157.99,128.364,155.126,126.121,153.836z"/><path d="M175.612,104.631c0.87,1.498,2.442,2.335,4.058,2.335c0.798,0,1.606-0.204,2.346-0.633c2.238-1.298,3-4.166,1.702-6.404    l-17.957-30.963c-1.298-2.237-4.163-3-6.403-1.702c-2.238,1.299-3.001,4.166-1.703,6.404L175.612,104.631z"/><path d="M327.183,390.507c2.588,0,4.686-2.097,4.686-4.686c0-2.588-2.098-4.686-4.686-4.686h-30.966v-23.74    c-0.401,0.129-0.807,0.239-1.209,0.364c-0.529,0.166-1.063,0.322-1.594,0.48c-1.246,0.372-2.494,0.726-3.749,1.059    c-0.63,0.169-1.263,0.334-1.896,0.492c-0.727,0.181-1.452,0.362-2.181,0.53c-1.153,0.268-2.312,0.521-3.476,0.756    c-0.642,0.13-1.285,0.249-1.93,0.369c-0.851,0.16-1.705,0.311-2.563,0.454c-0.563,0.093-1.122,0.191-1.686,0.278    c-0.332,0.051-0.666,0.094-0.998,0.143c-0.076,0.016-0.155,0.019-0.231,0.032c-0.894,0.128-1.788,0.25-2.688,0.36    c-0.509,0.062-1.02,0.118-1.529,0.175c-1.182,0.131-2.367,0.246-3.558,0.345c-0.281,0.023-0.562,0.053-0.842,0.075    c-1.452,0.11-2.912,0.19-4.376,0.253c-0.39,0.017-0.778,0.031-1.169,0.044c-1.51,0.053-3.023,0.088-4.545,0.088    c-1.523,0-3.038-0.035-4.549-0.088c-0.385-0.013-0.771-0.027-1.157-0.044c-1.47-0.063-2.935-0.143-4.392-0.254    c-0.263-0.021-0.523-0.049-0.786-0.069c-1.218-0.101-2.432-0.22-3.64-0.354c-0.487-0.053-0.973-0.107-1.459-0.167    c-0.951-0.115-1.896-0.244-2.839-0.38c-0.071-0.013-0.146-0.016-0.215-0.03c-0.309-0.045-0.621-0.086-0.929-0.134    c-0.521-0.08-1.04-0.171-1.56-0.257c-0.916-0.153-1.828-0.314-2.738-0.484c-0.601-0.113-1.201-0.224-1.799-0.344    c-1.197-0.244-2.389-0.503-3.575-0.778c-0.683-0.158-1.363-0.328-2.044-0.498c-0.702-0.175-1.401-0.356-2.099-0.543    c-1.136-0.304-2.266-0.624-3.394-0.957c-0.626-0.186-1.252-0.37-1.874-0.564c-0.388-0.122-0.78-0.227-1.168-0.353v23.741h-31.625    c-2.587,0-4.686,2.098-4.686,4.686c0,2.589,2.099,4.686,4.686,4.686h31.625v17.444h-31.625c-2.587,0-4.686,2.098-4.686,4.686    s2.099,4.686,4.686,4.686h31.625v17.442h13.278h53.883h13.271v-17.442h30.966c2.588,0,4.686-2.098,4.686-4.686    s-2.098-4.686-4.686-4.686h-30.966v-17.444H327.183z"/></g></g><g id="Layer_1"/></svg>