<?xml version="1.0" ?><!DOCTYPE svg  PUBLIC '-//W3C//DTD SVG 1.1//EN'  'http://www.w3.org/Graphics/SVG/1.1/DTD/svg11.dtd'><svg enable-background="new 0 0 512 512" height="512px" id="Crane" version="1.1" viewBox="0 0 512 512" width="512px" xml:space="preserve" xmlns="http://www.w3.org/2000/svg" xmlns:xlink="http://www.w3.org/1999/xlink"><g id="Crane_1_"><g><path d="M449.738,411.413c-9.809,0-17.787,7.979-17.787,17.787s7.979,17.787,17.787,17.787c9.807,0,17.787-7.979,17.787-17.787    S459.545,411.413,449.738,411.413z M449.738,434.987c-3.191,0-5.787-2.596-5.787-5.787s2.596-5.787,5.787-5.787    c3.19,0,5.787,2.596,5.787,5.787S452.929,434.987,449.738,434.987z"/><path d="M221.702,411.413c-9.809,0-17.788,7.979-17.788,17.787s7.979,17.787,17.788,17.787c9.808,0,17.787-7.979,17.787-17.787    S231.51,411.413,221.702,411.413z M221.702,434.987c-3.191,0-5.788-2.596-5.788-5.787s2.597-5.787,5.788-5.787    s5.787,2.596,5.787,5.787S224.894,434.987,221.702,434.987z"/><path d="M449.738,389.479h-60.113v-12.69h35.918h12h18.195V274.104l-18.195-13.969v-137.61h-9.211V84.057h-36.51v38.468h-82.23    l-46.759,78.251L115.357,58.75c-1.347-3.275-3.386-6.26-6.056-8.777c-5.054-4.763-11.917-7.254-18.838-6.853    c-0.738,0.044-1.49,0.156-2.308,0.346L39.674,54.793c-6.351,1.484-10.785,7.074-10.785,13.596v57.381h12V82.268l5.872,1.372    v64.857H28.082v67.488h12.271v6.86c-10.236,2.666-17.813,11.988-17.813,23.047c0,13.131,10.684,23.813,23.813,23.813    s23.813-10.683,23.813-23.812h-12c0,6.514-5.299,11.813-11.813,11.813c-6.515,0-11.813-5.299-11.813-11.813    c0-6.515,5.299-11.813,11.813-11.813h6v-18.096h12.271v-67.488h-5.864V86.443l29.402,6.869c0.811,0.188,1.563,0.301,2.297,0.344    c0.49,0.029,0.981,0.044,1.471,0.044c0.11,0,0.221-0.007,0.332-0.008l142.352,158.266v71.268h-25.409v53.563h25.409h12h35.918    v12.69H221.7c-21.903,0-39.722,17.819-39.722,39.722s17.818,39.722,39.722,39.722h228.038c21.902,0,39.721-17.819,39.721-39.722    S471.641,389.479,449.738,389.479z M437.543,275.264l6.195,4.756v84.769h-6.195V275.264z M234.614,364.788h-13.409v-29.563h13.409    V364.788z M403.822,96.057h12.51v8.52h-12.51V96.057z M403.822,116.576h12.51v5.948h-12.51V116.576z M52.625,203.985H40.082    v-43.488h12.543V203.985z M91.164,81.677c-0.003,0-0.085-0.006-0.277-0.051L42.404,70.299c-0.894-0.208-1.516-0.994-1.516-1.91    s0.622-1.702,1.516-1.91L90.88,55.152c0.199-0.046,0.281-0.052,0.288-0.053c0.27-0.016,0.539-0.023,0.807-0.023    c3.392,0,6.596,1.271,9.096,3.628c2.694,2.54,4.179,5.979,4.179,9.685s-1.484,7.144-4.179,9.684    C98.372,80.614,94.859,81.902,91.164,81.677z M239.574,239.528L105.085,90.004c1.504-0.912,2.921-1.979,4.216-3.199    c3.188-3.006,5.485-6.674,6.766-10.712l140.122,134.943L239.574,239.528z M246.614,364.788v-7.734h32.144v-12h-32.144v-21.828    v-71.913L316.4,134.524h75.422h33.721v116.397v94.132H293.848v12h131.695v7.734h-35.918H282.532H246.614z M377.625,376.788v12.69    h-83.093v-12.69H377.625z M221.7,456.922c-15.286,0-27.722-12.436-27.722-27.722s12.436-27.722,27.722-27.722    s27.722,12.436,27.722,27.722S236.986,456.922,221.7,456.922z M250.11,456.922c1.84-1.885,3.491-3.952,4.931-6.171h161.355    c1.439,2.219,3.091,4.286,4.931,6.171H250.11z M268.196,438.751h-7.942c0.758-3.062,1.168-6.259,1.168-9.551    c0-3.478-0.453-6.852-1.297-10.068h8.071c-1.493,2.951-2.34,6.282-2.34,9.81S266.703,435.8,268.196,438.751z M277.856,428.941    c0-5.409,4.4-9.81,9.81-9.81c5.408,0,9.809,4.4,9.809,9.81s-4.4,9.81-9.809,9.81C282.257,438.751,277.856,434.351,277.856,428.941    z M307.135,419.132h9.115c-1.494,2.951-2.34,6.282-2.34,9.81s0.846,6.858,2.34,9.81h-9.115c1.493-2.951,2.34-6.282,2.34-9.81    S308.628,422.083,307.135,419.132z M325.91,428.941c0-5.409,4.4-9.81,9.809-9.81c5.409,0,9.81,4.4,9.81,9.81s-4.4,9.81-9.81,9.81    C330.311,438.751,325.91,434.351,325.91,428.941z M355.188,419.132h8.49c-1.493,2.951-2.34,6.282-2.34,9.81s0.847,6.858,2.34,9.81    h-8.49c1.494-2.951,2.341-6.282,2.341-9.81S356.682,422.083,355.188,419.132z M373.338,428.941c0-5.409,4.4-9.81,9.81-9.81    s9.81,4.4,9.81,9.81s-4.4,9.81-9.81,9.81S373.338,434.351,373.338,428.941z M402.617,419.132h8.695    c-0.844,3.217-1.297,6.591-1.297,10.068c0,3.292,0.41,6.489,1.168,9.551h-8.566c1.492-2.951,2.34-6.282,2.34-9.81    S404.109,422.083,402.617,419.132z M416.729,407.132h-162.02c-1.358-2.025-2.901-3.914-4.599-5.653h32.422h107.093h31.702    C419.63,403.218,418.088,405.106,416.729,407.132z M449.738,456.922c-15.286,0-27.723-12.436-27.723-27.722    s12.437-27.722,27.723-27.722c15.285,0,27.721,12.436,27.721,27.722S465.023,456.922,449.738,456.922z"/><path d="M358.953,296.724h48.537v-33.673h-48.537V296.724z M370.953,275.051h24.537v9.673h-24.537V275.051z"/><path d="M407.49,144.194h-82.738l-65.788,111.487H407.49V144.194z M348.045,243.682h-68.066l51.627-87.487h16.439V243.682z     M395.49,243.682h-35.445v-87.487h35.445V243.682z"/></g></g></svg>