<?xml version="1.0" ?><!DOCTYPE svg  PUBLIC '-//W3C//DTD SVG 1.1//EN'  'http://www.w3.org/Graphics/SVG/1.1/DTD/svg11.dtd'><svg height="512px" style="enable-background:new 0 0 512 512; stroke: rgb(56, 56, 163); fill: rgb(56, 56, 163);" version="1.1" viewBox="0 0 512 512" width="512px" xml:space="preserve" xmlns="http://www.w3.org/2000/svg" xmlns:xlink="http://www.w3.org/1999/xlink"><g id="_x31_33_x2C__Solar_x2C__Panel_x2C__Energy_x2C__technology_x2C__smart_city"><path d="M248.916,247.069h-93.592l6.205-46.798h87.387V247.069z M298.797,423.799h-30.064h-0.123h-25.219h-0.094h-30.095v22.285   h85.596V423.799z M141.495,350.967h85.535h0.093h21.793v-46.188H147.639L141.495,350.967z M230.919,383.495h12.377h0.094h25.219   h0.123h12.347v-25.028h-26.978c-0.432,0.183-0.896,0.273-1.388,0.273c-0.495,0-0.988-0.091-1.421-0.273h-20.373V383.495z    M349.853,200.271h-93.343v46.798h99.58L349.853,200.271z M162.548,192.772h86.368V146.28H168.72L162.548,192.772z M342.661,146.28   h-86.152v46.492h92.356L342.661,146.28z M357.076,254.569H256.509v42.712h106.247L357.076,254.569z M148.626,297.281h100.29   v-42.712h-94.61L148.626,297.281z M284.968,350.967h84.919l-6.144-46.188H256.509v46.188h28.367H284.968z M247.188,390.996v25.334   h17.625v-25.334H247.188z M370.38,297.281h87.448l-8.52-42.712H364.7L370.38,297.281z M146.682,254.569H62.689l-8.55,42.712h86.863   L146.682,254.569z M436.932,192.772l-9.292-46.492h-77.355l6.206,46.492H436.932z M363.712,247.069h84.084l-9.354-46.798h-0.153   h-80.812L363.712,247.069z M140.013,304.779H52.659l-9.229,46.188h90.442L140.013,304.779z M153.904,200.271H73.556l-9.353,46.798   h83.467L153.904,200.271z M377.541,350.967h91.03l-9.229-46.188h-87.974L377.541,350.967z M161.096,146.28H84.329l-9.291,46.492   h79.884L161.096,146.28z M118.28,108.52c0.019,0.02,0.042,0.033,0.06,0.054c0.044,0.047,0.088,0.091,0.134,0.133   c0.022,0.021,0.038,0.046,0.06,0.065c0.043,0.037,0.091,0.063,0.136,0.098c0.046,0.036,0.09,0.076,0.138,0.109   c0.036,0.025,0.073,0.046,0.11,0.069c0.087,0.055,0.177,0.101,0.268,0.145c0.051,0.024,0.098,0.058,0.15,0.08   c0.026,0.011,0.054,0.019,0.081,0.029c0.111,0.045,0.225,0.073,0.339,0.104c0.027,0.008,0.053,0.019,0.081,0.025   c0.026,0.006,0.05,0.019,0.076,0.023c0.014,0.003,0.029,0.003,0.044,0.006c0.188,0.035,0.377,0.057,0.567,0.057h0h0h0h0   c0.19,0,0.38-0.021,0.568-0.057c0.014-0.003,0.029-0.003,0.043-0.006c0.026-0.005,0.05-0.018,0.076-0.023   c0.027-0.007,0.053-0.018,0.08-0.024c0.115-0.031,0.229-0.06,0.341-0.104c0.026-0.011,0.054-0.019,0.08-0.029   c0.051-0.022,0.098-0.055,0.149-0.079c0.091-0.045,0.182-0.091,0.27-0.146c0.037-0.023,0.074-0.044,0.109-0.069   c0.048-0.033,0.091-0.072,0.137-0.109c0.044-0.035,0.093-0.061,0.136-0.098c0.022-0.02,0.038-0.044,0.06-0.065   c0.046-0.042,0.09-0.086,0.134-0.133c0.019-0.021,0.042-0.034,0.06-0.054l14.362-15.998c1.099-1.224,0.985-3.096-0.254-4.182   c-1.239-1.083-3.135-0.974-4.235,0.251l-9.118,10.155V28.709c0-1.637-1.343-2.963-3-2.963s-3,1.326-3,2.963v70.037l-9.118-10.155   c-1.1-1.225-2.996-1.334-4.235-0.251c-1.24,1.086-1.354,2.958-0.254,4.182L118.28,108.52z M176.576,125.094   c0.019,0.02,0.042,0.033,0.06,0.054c0.044,0.046,0.088,0.09,0.134,0.133c0.022,0.021,0.038,0.046,0.06,0.065   c0.043,0.036,0.091,0.063,0.136,0.098c0.046,0.036,0.09,0.076,0.138,0.108c0.036,0.025,0.073,0.047,0.11,0.07   c0.087,0.055,0.177,0.099,0.267,0.145c0.051,0.024,0.099,0.058,0.151,0.08c0.026,0.011,0.053,0.02,0.08,0.029   c0.111,0.044,0.225,0.073,0.339,0.104c0.025,0.007,0.049,0.018,0.075,0.023c0.028,0.007,0.054,0.02,0.082,0.025   c0.014,0.003,0.029,0.003,0.044,0.006c0.188,0.035,0.377,0.056,0.567,0.056h0h0h0h0c0.19,0,0.38-0.021,0.567-0.056   c0.015-0.003,0.03-0.003,0.044-0.006c0.026-0.005,0.05-0.018,0.076-0.023c0.028-0.007,0.054-0.018,0.081-0.025   c0.114-0.03,0.228-0.06,0.339-0.104c0.027-0.011,0.054-0.019,0.081-0.029c0.052-0.022,0.099-0.056,0.149-0.08   c0.091-0.045,0.182-0.09,0.269-0.145c0.037-0.023,0.074-0.045,0.109-0.07c0.048-0.032,0.091-0.071,0.137-0.108   c0.044-0.035,0.093-0.062,0.136-0.098c0.022-0.02,0.038-0.044,0.06-0.065c0.046-0.043,0.09-0.087,0.134-0.133   c0.019-0.021,0.042-0.034,0.06-0.054l14.361-16c1.099-1.225,0.985-3.097-0.254-4.183c-1.239-1.083-3.135-0.973-4.235,0.252   l-9.117,10.155V45.281c0-1.638-1.343-2.963-3-2.963s-3,1.325-3,2.963v70.038l-9.119-10.156c-1.098-1.225-2.996-1.337-4.235-0.252   c-1.24,1.086-1.354,2.959-0.254,4.183L176.576,125.094z M217.476,108.52c0.019,0.02,0.042,0.033,0.06,0.054   c0.045,0.048,0.09,0.093,0.138,0.137c0.021,0.019,0.035,0.042,0.056,0.061c0.042,0.036,0.088,0.061,0.131,0.095   c0.048,0.038,0.092,0.078,0.142,0.113c0.036,0.025,0.074,0.047,0.112,0.071c0.085,0.053,0.174,0.097,0.263,0.141   c0.052,0.026,0.1,0.06,0.153,0.082c0.026,0.012,0.054,0.02,0.08,0.03c0.111,0.044,0.225,0.072,0.339,0.103   c0.025,0.007,0.049,0.018,0.075,0.023c0.028,0.007,0.054,0.02,0.082,0.025c0.014,0.003,0.029,0.003,0.044,0.006   c0.188,0.035,0.377,0.057,0.567,0.057h0h0h0h0c0.19,0,0.38-0.021,0.567-0.057c0.015-0.003,0.03-0.003,0.044-0.006   c0.026-0.005,0.05-0.018,0.076-0.023c0.028-0.007,0.054-0.018,0.081-0.025c0.114-0.03,0.228-0.059,0.339-0.104   c0.027-0.011,0.054-0.019,0.081-0.029c0.052-0.022,0.099-0.056,0.149-0.08c0.091-0.044,0.182-0.09,0.269-0.145   c0.037-0.023,0.074-0.044,0.109-0.069c0.048-0.033,0.091-0.072,0.137-0.109c0.044-0.035,0.093-0.061,0.136-0.098   c0.022-0.02,0.038-0.044,0.06-0.065c0.046-0.042,0.09-0.086,0.134-0.133c0.019-0.021,0.042-0.034,0.06-0.054l14.363-15.998   c1.099-1.224,0.985-3.096-0.254-4.181c-1.238-1.086-3.135-0.975-4.235,0.25l-9.119,10.156V28.709c0-1.637-1.343-2.963-3-2.963   s-3,1.326-3,2.963v70.037l-9.117-10.155c-1.099-1.225-2.996-1.335-4.235-0.251c-1.24,1.086-1.354,2.958-0.254,4.182L217.476,108.52   z M275.771,125.094c0.019,0.02,0.042,0.033,0.061,0.054c0.044,0.046,0.088,0.09,0.134,0.133c0.022,0.021,0.038,0.046,0.061,0.065   c0.043,0.036,0.091,0.063,0.136,0.098c0.046,0.036,0.09,0.076,0.138,0.108c0.035,0.025,0.072,0.047,0.109,0.07   c0.087,0.055,0.177,0.099,0.268,0.145c0.051,0.024,0.099,0.058,0.151,0.08c0.025,0.011,0.053,0.02,0.08,0.029   c0.11,0.044,0.225,0.073,0.339,0.104c0.025,0.007,0.049,0.018,0.075,0.023c0.027,0.007,0.054,0.02,0.082,0.025   c0.014,0.003,0.029,0.003,0.044,0.006c0.188,0.035,0.377,0.056,0.567,0.056l0,0h0.001l0,0h0.001c0.189,0,0.379-0.021,0.567-0.056   c0.015-0.003,0.029-0.003,0.044-0.006c0.025-0.005,0.05-0.018,0.076-0.023c0.028-0.007,0.054-0.018,0.081-0.025   c0.114-0.03,0.228-0.06,0.339-0.103c0.026-0.011,0.054-0.02,0.08-0.03c0.052-0.022,0.1-0.056,0.15-0.08   c0.091-0.046,0.181-0.09,0.268-0.144c0.037-0.024,0.074-0.046,0.11-0.071c0.048-0.032,0.091-0.072,0.138-0.108   c0.044-0.035,0.093-0.062,0.136-0.098c0.022-0.02,0.038-0.044,0.06-0.065c0.047-0.043,0.091-0.087,0.135-0.133   c0.019-0.021,0.041-0.034,0.06-0.054l14.362-16c1.1-1.225,0.985-3.097-0.254-4.183c-1.239-1.083-3.136-0.973-4.235,0.252   l-9.117,10.156V45.281c0-1.638-1.344-2.963-3-2.963c-1.657,0-3,1.325-3,2.963v70.038l-9.118-10.156   c-1.1-1.225-2.994-1.337-4.234-0.252c-1.24,1.086-1.354,2.958-0.255,4.183L275.771,125.094z M316.85,108.52   c0.018,0.019,0.039,0.032,0.058,0.052c0.046,0.049,0.092,0.094,0.141,0.139c0.021,0.02,0.034,0.042,0.056,0.061   c0.042,0.036,0.09,0.062,0.134,0.096c0.046,0.037,0.09,0.077,0.138,0.111c0.037,0.026,0.076,0.048,0.115,0.072   c0.085,0.054,0.174,0.098,0.264,0.142c0.051,0.025,0.098,0.058,0.15,0.08c0.026,0.012,0.055,0.021,0.082,0.031   c0.11,0.044,0.223,0.072,0.335,0.102c0.031,0.009,0.061,0.021,0.093,0.029c0.022,0.005,0.044,0.016,0.067,0.021   c0.014,0.003,0.029,0.003,0.044,0.006c0.188,0.035,0.377,0.057,0.567,0.057c0,0,0,0,0.001,0s0.001,0,0.001,0   c0.19,0,0.38-0.021,0.567-0.057c0.015-0.003,0.03-0.003,0.044-0.006c0.023-0.005,0.045-0.016,0.067-0.021   c0.032-0.008,0.062-0.021,0.093-0.029c0.112-0.029,0.225-0.058,0.335-0.102c0.027-0.011,0.056-0.02,0.082-0.031   c0.053-0.022,0.1-0.055,0.15-0.08c0.09-0.044,0.179-0.088,0.264-0.142c0.039-0.024,0.078-0.046,0.115-0.072   c0.048-0.034,0.092-0.074,0.138-0.111c0.044-0.034,0.092-0.06,0.134-0.096c0.021-0.019,0.035-0.041,0.056-0.061   c0.049-0.045,0.095-0.09,0.141-0.139c0.019-0.02,0.04-0.033,0.058-0.052l14.363-15.998c1.1-1.224,0.986-3.096-0.254-4.181   c-1.239-1.086-3.135-0.975-4.234,0.25l-9.119,10.156V28.709c0-1.637-1.343-2.963-3-2.963s-3,1.326-3,2.963v70.038l-9.119-10.156   c-1.099-1.225-2.996-1.336-4.234-0.25c-1.24,1.085-1.354,2.957-0.255,4.181L316.85,108.52z M375.144,125.094   c0.019,0.021,0.042,0.034,0.062,0.055c0.043,0.046,0.088,0.089,0.134,0.133c0.021,0.021,0.037,0.045,0.06,0.064   c0.043,0.036,0.091,0.063,0.136,0.098c0.046,0.036,0.089,0.075,0.137,0.108c0.036,0.025,0.074,0.047,0.111,0.071   c0.087,0.055,0.178,0.099,0.269,0.145c0.05,0.023,0.097,0.057,0.148,0.078c0.026,0.012,0.055,0.021,0.081,0.031   c0.11,0.043,0.224,0.072,0.338,0.103c0.03,0.008,0.06,0.021,0.09,0.028c0.023,0.005,0.045,0.016,0.068,0.021   c0.014,0.003,0.029,0.003,0.044,0.006c0.188,0.035,0.377,0.056,0.567,0.056c0,0,0,0,0.001,0s0.001,0,0.001,0   c0.19,0,0.38-0.021,0.567-0.056c0.015-0.003,0.03-0.003,0.044-0.006c0.025-0.005,0.048-0.017,0.073-0.022   c0.029-0.007,0.056-0.019,0.085-0.026c0.114-0.03,0.228-0.06,0.338-0.103c0.026-0.011,0.055-0.02,0.081-0.03   c0.052-0.022,0.1-0.056,0.151-0.081c0.09-0.045,0.18-0.089,0.266-0.143c0.037-0.023,0.074-0.046,0.11-0.071   c0.049-0.033,0.093-0.072,0.14-0.11c0.044-0.034,0.092-0.061,0.134-0.096c0.022-0.02,0.038-0.044,0.06-0.064   c0.046-0.044,0.091-0.087,0.134-0.133c0.02-0.021,0.043-0.034,0.062-0.055l14.361-16c1.099-1.225,0.984-3.097-0.255-4.183   c-1.238-1.083-3.135-0.973-4.235,0.252l-9.116,10.155V45.281c0-1.638-1.343-2.963-3-2.963s-3,1.325-3,2.963v70.037l-9.118-10.155   c-1.102-1.225-2.996-1.335-4.235-0.252c-1.24,1.086-1.354,2.959-0.255,4.183L375.144,125.094z M343.391,480.056H69.367   c-1.657,0-3,1.326-3,2.962c0,1.638,1.343,2.964,3,2.964h274.023c1.657,0,3-1.326,3-2.964   C346.391,481.382,345.048,480.056,343.391,480.056z M419.455,461.497H229.831c-1.657,0-3,1.327-3,2.964s1.343,2.962,3,2.962   h189.624c1.657,0,3-1.325,3-2.962S421.112,461.497,419.455,461.497z M462.572,461.497h-23.714c-1.657,0-3,1.327-3,2.964   s1.343,2.962,3,2.962h23.714c1.657,0,3-1.325,3-2.962S464.229,461.497,462.572,461.497z M151.434,465.021   c0-1.637-1.343-2.964-3-2.964H58.588c-1.657,0-3,1.327-3,2.964s1.343,2.962,3,2.962h89.846   C150.09,467.983,151.434,466.658,151.434,465.021z"/></g><g id="Layer_1"/></svg>