<?xml version="1.0" ?><svg viewBox="0 0 64 64" xmlns="http://www.w3.org/2000/svg"><defs><style>.cls-1{fill:none;stroke:#000;stroke-linejoin:round;stroke-width:2px;}</style></defs><title/><g data-name="Layer 29" id="Layer_29"><rect class="cls-1" height="12" width="60" x="2" y="2"/><rect class="cls-1" height="4" width="60" x="2" y="58"/><polyline class="cls-1" points="4 14 4 20 60 20 60 14"/><polyline class="cls-1" points="22 14 22 6 42 6 42 14"/><line class="cls-1" x1="6" x2="6" y1="20" y2="58"/><line class="cls-1" x1="58" x2="58" y1="20" y2="58"/><rect class="cls-1" height="22" width="12" x="10" y="36"/><rect class="cls-1" height="6" width="8" x="12" y="26"/><polygon class="cls-1" points="52 32 44 32 46 26 50 26 52 32"/><line class="cls-1" x1="16" x2="16" y1="29" y2="32"/><polyline class="cls-1" points="22 41 18 41 18 49 22 49"/><rect class="cls-1" height="22" width="12" x="42" y="36"/><polyline class="cls-1" points="54 41 50 41 50 49 54 49"/><line class="cls-1" x1="25" x2="38" y1="10" y2="10"/><rect class="cls-1" height="13" width="12" x="26" y="26"/><line class="cls-1" x1="29" x2="33" y1="33" y2="29"/><line class="cls-1" x1="31" x2="35" y1="36" y2="32"/><polygon class="cls-1" points="35 49 29 49 27 45 37 45 35 49"/><line class="cls-1" x1="32" x2="32" y1="45" y2="42"/><polyline class="cls-1" points="32 49 32 53 35 53"/></g></svg>