<?xml version="1.0" ?><svg height="64" id="svg8" version="1.1" viewBox="0 0 16.933333 16.933333" width="64" xmlns="http://www.w3.org/2000/svg" xmlns:cc="http://creativecommons.org/ns#" xmlns:dc="http://purl.org/dc/elements/1.1/" xmlns:inkscape="http://www.inkscape.org/namespaces/inkscape" xmlns:rdf="http://www.w3.org/1999/02/22-rdf-syntax-ns#" xmlns:sodipodi="http://sodipodi.sourceforge.net/DTD/sodipodi-0.dtd" xmlns:svg="http://www.w3.org/2000/svg"><defs id="defs2"/><g id="layer2"><path d="m 7.936982,1.0583411 c -0.1465791,0 -0.2645831,0.118004 -0.2645831,0.264583 -2.91e-4,0.08824 2.7e-5,0.176354 0,0.2645838 -1.079e-4,0.352919 0.00101,0.7058671 0.00101,1.058333 -4.498e-4,0.02049 -0.0081,0.03569 -0.01188,0.05374 -0.0037,0.01739 -0.0045,0.03575 -0.011369,0.05168 -0.0112,0.02649 -0.02752,0.0476 -0.04547,0.06718 -0.0043,0.0049 -0.0068,0.01096 -0.011369,0.0155 -0.0098,0.0091 -0.021489,0.01487 -0.03256,0.02222 -0.04365,0.03175 -0.09462,0.05426 -0.152963,0.05426 -0.06317,0 -0.1184169,-0.02534 -0.1638141,-0.06201 -0.0056,-0.0042 -0.012301,-0.0066 -0.017571,-0.01137 -0.01606,-0.01523 -0.02693,-0.03439 -0.03876,-0.05323 -0.0061,-0.0097 -0.014279,-0.01699 -0.019119,-0.02791 -0.01546,-0.03367 -0.025321,-0.07047 -0.025321,-0.1100709 V 1.937863 C 5.9389343,2.345459 4.9905591,3.2939129 4.5831593,4.4979129 h 0.800984 a 0.26484198,0.26484198 0 0 1 0,0.5296839 H 4.2632812 c -0.05462,0 -0.1152829,0.02741 -0.179833,0.1188552 -0.06455,0.09145 -0.115239,0.240566 -0.115239,0.410311 0,0.1697458 0.05069,0.3167989 0.115239,0.4082439 0.06455,0.09145 0.125214,0.120923 0.179833,0.120923 H 12.66742 c 0.05462,0 0.117352,-0.02948 0.181901,-0.120923 0.06456,-0.09145 0.115238,-0.238498 0.115238,-0.4082439 0,-0.169745 -0.05069,-0.318866 -0.115238,-0.410311 C 12.784771,5.055012 12.72204,5.0275968 12.66742,5.0275968 h -1.119312 a 0.26484198,0.26484198 0 0 1 0,-0.5296839 h 0.801501 C 11.942039,3.2942919 10.993243,2.346525 9.7890347,1.938896 V 2.64583 c 0,0.0071 -0.0036,0.01315 -0.0041,0.02015 -0.01474,0.337964 -0.5333806,0.332852 -0.525549,-0.02015 4.24e-4,-0.352761 5.03e-4,-0.705497 5.29e-4,-1.058333 4e-6,-0.08821 0,-0.176347 0,-0.264584 C 9.2599027,1.176334 9.1418991,1.05833 8.9953191,1.05833 Z m 0,2.3812498 h 1.0588502 a 0.26464844,0.26464844 0 1 1 0,0.5291659 H 7.936982 a 0.26464844,0.26464844 0 0 1 0,-0.5291659 z M 7.911661,4.4979237 a 0.26460979,0.26460979 0 0 1 0.025321,0 h 1.0588502 a 0.2648421,0.2648421 0 0 1 0,0.5296842 H 7.936982 A 0.26514454,0.26514454 0 0 1 7.911661,4.4979237 Z m 0.55087,2.113566 A 0.26460979,0.26460979 0 0 0 8.2026,6.878657 V 7.6739579 H 4.4974002 a 0.26460979,0.26460979 0 0 0 -0.025321,0 0.26460979,0.26460979 0 0 0 -0.2382279,0.2635488 v 0.7927172 a 0.26464844,0.26464844 0 0 0 0.5291669,0 V 8.201057 h 3.6814289 a 0.26464844,0.26464844 0 0 0 0.04341,0 h 3.6834959 v 0.5291669 a 0.26464849,0.26464849 0 0 0 0.529166,0 V 7.9375067 A 0.26460979,0.26460979 0 0 0 12.434904,7.6739579 H 8.7317701 V 6.878657 A 0.26460979,0.26460979 0 0 0 8.4625361,6.6114897 Z m -3.9646149,2.913517 c -0.800555,1.2e-6 -1.454691,0.6546533 -1.454691,1.4552093 0,0.800555 0.654136,1.454691 1.454691,1.454691 0.8005569,0 1.4552088,-0.654136 1.4552088,-1.454691 0,-0.800556 -0.6546519,-1.4552093 -1.4552088,-1.4552093 z m 7.9369839,0 c -0.800557,1.2e-6 -1.454692,0.6546533 -1.454692,1.4552093 0,0.800555 0.654135,1.454691 1.454692,1.454691 0.800556,0 1.455208,-0.654136 1.455208,-1.454691 0,-0.800556 -0.654652,-1.4552093 -1.455208,-1.4552093 z m -8.7529539,3.4401003 0.81597,0.943095 0.815971,-0.943095 z m 7.9369829,0 0.815971,0.943095 0.81597,-0.943095 z m -8.6185949,0.02015 c -0.382236,0.04402 -0.715591,0.164233 -0.9927051,0.33693 l 0.03721,0.0217 c 0.5104691,0.294823 0.8523941,0.843981 0.8629971,1.472262 H 4.232303 v -0.408244 z m 2.9951649,0 -1.234033,1.425236 v 0.40566 H 6.088 C 6.098599,14.18787 6.440527,13.638715 6.950997,13.343892 l 0.03772,-0.0217 C 6.7114789,13.149416 6.3779459,13.02923 5.995495,12.985262 Z m 4.941818,0 c -0.382236,0.04402 -0.715591,0.164233 -0.9927053,0.33693 l 0.03721,0.0217 c 0.5104683,0.294822 0.8523933,0.84398 0.8629963,1.472261 h 1.324467 v -0.408244 z m 2.995166,0 -1.234034,1.425236 v 0.40566 h 1.326535 c 0.0106,-0.628283 0.352526,-1.177438 0.862996,-1.472261 l 0.03772,-0.0217 C 14.648463,13.149417 14.31493,13.02923 13.932479,12.985262 Z M 1.5725141,13.682372 c -0.332122,0.359496 -0.513664,0.809662 -0.513664,1.247469 v 0.681612 a 0.26460979,0.26460979 0 0 0 0.26355,0.26355 h 1.058333 v -1.029394 c 0,-0.450447 -0.241709,-0.837092 -0.6015141,-1.044898 z m 5.8513219,0 -0.2087729,0.118339 C 6.855259,14.008517 6.6150999,14.395162 6.6150999,14.845609 v 1.029394 h 1.05885 a 0.26460979,0.26460979 0 0 0 0.2635502,-0.26355 v -0.681612 c 0,-0.437846 -0.1814862,-0.887957 -0.5136641,-1.247469 z m 2.0856607,0 c -0.3321218,0.359496 -0.5136638,0.809662 -0.5136638,1.247469 v 0.681612 a 0.26460979,0.26460979 0 0 0 0.2635498,0.26355 h 1.0583333 v -1.029394 c 0,-0.450447 -0.241709,-0.837092 -0.6015143,-1.044898 z m 5.8513223,0 -0.208773,0.118339 c -0.359804,0.207806 -0.599963,0.594451 -0.599963,1.044898 v 1.029394 h 1.05885 a 0.26460979,0.26460979 0 0 0 0.26355,-0.26355 v -0.681612 c 0,-0.437846 -0.181486,-0.887957 -0.513664,-1.247469 z M 2.9099001,15.345837 v 0.529166 h 1.3224 v -0.529166 z m 1.8515659,0 v 0.529166 h 1.3244671 v -0.529166 z m 6.085417,0 v 0.529166 h 1.3224 v -0.529166 z m 1.851566,0 v 0.529166 h 1.324467 v -0.529166 z" id="path1567" style="fill:#ffffff;stroke:none;stroke-width:0.26458332px;stroke-linecap:butt;stroke-linejoin:miter;stroke-opacity:1"/></g></svg>