<?xml version="1.0" ?><!DOCTYPE svg  PUBLIC '-//W3C//DTD SVG 1.1//EN'  'http://www.w3.org/Graphics/SVG/1.1/DTD/svg11.dtd'><svg height="512px" style="enable-background:new 0 0 512 512;" version="1.1" viewBox="0 0 512 512" width="512px" xml:space="preserve" xmlns="http://www.w3.org/2000/svg" xmlns:xlink="http://www.w3.org/1999/xlink"><g id="_x37_28_x2C__Bulb_x2C__develop_x2C__idea_x2C__innovation_x2C__light"><g><path d="M256,178.747c15.929,0,28.838,12.909,28.838,28.839    c0,15.928-12.909,28.84-28.838,28.84s-28.839-12.912-28.839-28.84C227.161,191.656,240.071,178.747,256,178.747 M184.07,207.586    v5.17l19.897,2.962c0.559,3.772,1.564,7.377,2.878,10.843l-15.733,12.519l5.17,8.944l18.723-7.352    c2.347,2.906,5.002,5.561,7.936,7.909l-7.377,18.724l8.942,5.169l12.519-15.733c3.465,1.343,7.07,2.32,10.842,2.906l2.99,19.869    h10.311l2.99-19.869c3.745-0.586,7.378-1.563,10.814-2.906l12.548,15.733l8.914-5.169l-7.349-18.724    c2.905-2.349,5.561-5.003,7.907-7.909l18.724,7.352l5.169-8.944l-15.732-12.519c1.341-3.466,2.319-7.07,2.906-10.843l19.896-2.989    v-5.143v-5.169l-19.896-2.99c-0.587-3.745-1.565-7.378-2.906-10.814l15.732-12.548l-5.169-8.914l-18.724,7.349    c-2.347-2.906-5.002-5.562-7.907-7.907l7.349-18.723l-8.914-5.17l-12.548,15.731c-3.437-1.341-7.069-2.317-10.814-2.905    l-2.99-19.896h-10.311l-2.99,19.896c-3.772,0.588-7.377,1.564-10.842,2.905l-12.519-15.731l-8.942,5.17l7.377,18.723    c-2.934,2.346-5.589,5.001-7.936,7.907l-18.723-7.349l-5.17,8.914l15.733,12.548c-1.313,3.437-2.319,7.069-2.878,10.814    l-19.897,2.99V207.586z M405.896,118.219c1.62-0.949,3.716-0.391,4.666,1.23c0.95,1.647,0.392,3.744-1.257,4.693l-30.544,17.634    c-1.649,0.951-3.745,0.392-4.694-1.229c-0.95-1.648-0.391-3.745,1.258-4.695L405.896,118.219z M431.465,206.804    c1.9,0,3.438,1.537,3.438,3.438s-1.537,3.437-3.438,3.437H396.17c-1.9,0-3.438-1.536-3.438-3.437s1.537-3.438,3.438-3.438H431.465    z M166.661,57.69c-0.95-1.647-0.391-3.745,1.23-4.694c1.648-0.951,3.745-0.391,4.695,1.257l17.632,30.573    c0.95,1.619,0.392,3.717-1.229,4.666c-1.648,0.951-3.745,0.391-4.695-1.259L166.661,57.69z M102.695,124.143    c-1.648-0.949-2.208-3.046-1.257-4.693c0.95-1.621,3.046-2.18,4.695-1.23l30.543,17.633c1.648,0.95,2.208,3.047,1.257,4.695    c-0.95,1.621-3.045,2.181-4.667,1.229L102.695,124.143z M80.536,213.678c-1.9,0-3.438-1.536-3.438-3.437s1.537-3.438,3.438-3.438    h35.294c1.9,0,3.437,1.537,3.437,3.438s-1.537,3.437-3.437,3.437H80.536z M250.103,29.383c0.028-1.873,1.565-3.381,3.466-3.381    c1.872,0.027,3.381,1.593,3.381,3.465l-0.419,30.068c-0.028,1.9-1.565,3.409-3.465,3.381c-1.872,0-3.409-1.565-3.381-3.464    L250.103,29.383z M164.09,471.327c-1.9,0-3.437-1.535-3.437-3.436s1.537-3.438,3.437-3.438h125.667    c1.872,0,3.438,1.537,3.438,3.438s-1.565,3.436-3.438,3.436H164.09z M230.011,485.999c-1.9,0-3.437-1.538-3.437-3.41    c0-1.9,1.536-3.438,3.437-3.438h99.735c1.9,0,3.437,1.537,3.437,3.438c0,1.872-1.536,3.41-3.437,3.41H230.011z M339.945,485.999    c-1.9,0-3.437-1.538-3.437-3.41c0-1.9,1.536-3.438,3.437-3.438h12.491c1.872,0,3.409,1.537,3.409,3.438    c0,1.872-1.537,3.41-3.409,3.41H339.945z M139.946,485.385c-1.9,0-3.438-1.537-3.438-3.438s1.537-3.438,3.438-3.438H187.2    c1.9,0,3.438,1.537,3.438,3.438s-1.537,3.438-3.438,3.438H139.946z M179.99,347.282c1.313,0,2.655-0.867,3.102-1.929    c1.146-2.32-0.614-4.946-3.102-4.946h-6.874c-1.286,0-2.627,0.839-3.074,1.929c-1.146,2.291,0.615,4.946,3.074,4.946H179.99z     M331.701,347.282c1.287,0,2.655-0.867,3.074-1.929c1.146-2.32-0.586-4.946-3.074-4.946h-6.873c-1.286,0-2.656,0.839-3.074,1.929    c-1.146,2.291,0.587,4.946,3.074,4.946H331.701z M359.172,347.282c1.285,0,2.654-0.867,3.074-1.929    c1.146-2.32-0.588-4.946-3.074-4.946h-6.875c-1.285,0-2.654,0.839-3.073,1.929c-1.146,2.291,0.586,4.946,3.073,4.946H359.172z     M145.674,340.407c-1.313,0-2.655,0.839-3.102,1.929c-1.145,2.291,0.615,4.946,3.102,4.946h6.846c1.313,0,2.655-0.867,3.103-1.929    c1.145-2.32-0.615-4.946-3.103-4.946H145.674z M179.99,329.761c1.313,0,2.655-0.839,3.102-1.929    c1.146-2.291-0.614-4.946-3.102-4.946h-6.874c-1.286,0-2.627,0.839-3.074,1.929c-1.146,2.291,0.615,4.946,3.074,4.946H179.99z     M331.701,329.761c1.287,0,2.655-0.839,3.074-1.929c1.146-2.291-0.586-4.946-3.074-4.946h-6.873c-1.286,0-2.656,0.839-3.074,1.929    c-1.146,2.291,0.587,4.946,3.074,4.946H331.701z M359.172,329.761c1.285,0,2.654-0.839,3.074-1.929    c1.146-2.291-0.588-4.946-3.074-4.946h-6.875c-1.285,0-2.654,0.839-3.073,1.929c-1.146,2.291,0.586,4.946,3.073,4.946H359.172z     M145.674,322.886c-1.313,0-2.655,0.839-3.102,1.929c-1.145,2.291,0.615,4.946,3.102,4.946h6.846c1.313,0,2.655-0.839,3.103-1.929    c1.145-2.291-0.615-4.946-3.103-4.946H145.674z M339.414,54.253c0.951-1.647,3.047-2.208,4.695-1.257    c1.621,0.949,2.18,3.047,1.258,4.694l-17.661,30.543c-0.95,1.649-3.046,2.21-4.667,1.259c-1.648-0.949-2.207-3.047-1.257-4.666    L339.414,54.253z M205.812,382.408h100.405v23.947H205.812V382.408z M215.313,430.276h81.375V413.23h-81.375V430.276z     M280.312,437.151v17.074h-48.624v-17.074H280.312z M256,96.617c62.623,0,113.398,50.775,113.398,113.399    c0,38.843-19.532,73.131-49.321,93.56l-21.043,69.722c-0.223,0.727-0.363,1.481-0.475,2.235H213.44    c-0.084-0.754-0.224-1.509-0.448-2.235l-21.07-69.722c-29.761-20.429-49.323-54.717-49.323-93.56    C142.6,147.393,193.375,96.617,256,96.617z" style="fill-rule:evenodd;clip-rule:evenodd;"/></g></g><g id="Layer_1"/></svg>