<?xml version="1.0" ?><!DOCTYPE svg  PUBLIC '-//W3C//DTD SVG 1.1//EN'  'http://www.w3.org/Graphics/SVG/1.1/DTD/svg11.dtd'><svg height="512px" style="enable-background:new 0 0 512 512;" version="1.1" viewBox="0 0 512 512" width="512px" xml:space="preserve" xmlns="http://www.w3.org/2000/svg" xmlns:xlink="http://www.w3.org/1999/xlink"><g><g><path d="M131.648,206.61L68.584,102.885c-3.835,3.376-7.571,7.392-10.86,11.91    c-15.147,20.398-23.271,51.84-11.958,92.363c2.559,8.899,7.94,23.593,13.78,37.648c5.571,13.553,11.412,26.421,15.339,32.994    c16.608,27.973,40.885,57.863,67.899,84.924c27.106,27.106,56.954,51.292,84.968,67.948c6.577,3.926,19.443,9.766,32.953,15.379    c14.049,5.75,28.744,11.227,37.689,13.689c40.522,11.363,71.916,3.195,92.365-11.909c5.02-3.697,9.307-7.804,12.958-12.14    l-104.687-61.925c-11.682,14.102-17.613,18.071-35.59,7.485c-31.763-18.711-57.224-37.604-79.403-59.781    c-22.179-22.133-41.07-47.597-59.783-79.312C113.673,224.134,117.685,218.247,131.648,206.61 M310.988,233.078v-37.419    l-26.098,37.419H310.988z M310.988,262.375v-19.85h-36.142v-9.447l38.063-53.893h8.3v53.893h11.32v9.447h-11.32v19.85H310.988z     M267.367,252.609v9.766h-55.125c-0.092-2.465,0.362-4.838,1.184-7.119c1.46-3.742,3.743-7.438,6.847-11.043    c3.099-3.605,7.571-7.804,13.326-12.548c9.032-7.439,15.148-13.281,18.345-17.616c3.19-4.335,4.834-8.442,4.834-12.32    c0-4.062-1.46-7.438-4.381-10.222c-2.92-2.785-6.663-4.199-11.412-4.199c-4.927,0-8.847,1.506-11.774,4.426    c-3.006,2.922-4.466,6.982-4.559,12.185l-10.405-1.05c0.73-7.803,3.374-13.782,8.123-17.888    c4.651-4.107,10.951-6.161,18.891-6.161c7.939,0,14.332,2.237,18.982,6.662c4.656,4.427,6.939,9.949,6.939,16.475    c0,3.331-0.639,6.616-2.006,9.811c-1.375,3.24-3.65,6.616-6.755,10.176c-3.197,3.56-8.492,8.442-15.792,14.648    c-6.111,5.157-10.038,8.625-11.867,10.496c-1.729,1.826-3.098,3.65-4.288,5.522H267.367z M190.155,140.259    c-1.645,1.095-3.834,0.592-4.933-1.05c-1.092-1.688-0.639-3.924,1.006-5.02c10.951-7.119,23.002-12.732,35.867-16.52    c12.412-3.695,25.554-5.658,39.064-5.658c38.057,0,72.463,15.379,97.292,40.294c24.916,24.872,40.34,59.279,40.34,97.292    c0,20.672-4.564,40.294-12.779,57.909c-7.755,16.656-18.713,31.487-32.125,43.717c14.51,9.036,25.555,15.014,41.07,23.547    c2.189,1.187,4.564,2.373,6.663,3.605c1.729,0.867,3.466,1.78,4.833,2.646c7.395,4.609,10.952,12.321,10.952,21.22    c0.093,7.302-2.19,15.424-6.662,23.319c-0.823,1.459-1.638,2.875-2.646,4.335l-104.502-61.742l5.479-6.662    c10.037-12.14,15.879-18.574,20.805-20.398c4.203-1.598,8.854,0.592,16.885,5.704l0.73,0.456    c13.418-11.819,24.369-26.377,31.947-42.759c7.754-16.702,12.135-35.275,12.135-54.897c0-36.006-14.603-68.588-38.234-92.18    c-23.548-23.593-56.132-38.196-92.183-38.196c-12.866,0-25.284,1.87-37.059,5.339    C211.966,128.166,200.561,133.505,190.155,140.259z M74.333,98.368l62.979,103.679l6.749-5.566    c12.142-10.086,18.529-15.88,20.449-20.81c1.545-4.244-0.645-8.807-5.755-16.839c-11.682-18.39-18.16-30.254-28.013-48.235    l-3.565-6.708l-0.177-0.365c17.063-14.739,36.781-26.695,58.138-35.138c23.179-9.172,48.462-14.237,75.016-14.237    c56.315,0,107.422,22.862,144.388,59.826c36.959,36.962,59.776,88.027,59.776,144.431c0,9.674-0.639,19.212-1.914,28.521    c-1.368,9.492-3.374,18.802-5.934,27.837c-0.545,1.916,0.546,3.925,2.467,4.427c1.914,0.547,3.92-0.549,4.473-2.465    c2.645-9.354,4.743-18.983,6.111-28.841c1.367-9.675,2.012-19.531,2.012-29.479c0-58.412-23.639-111.256-61.881-149.543    c-38.24-38.241-91.177-61.925-149.498-61.925c-27.468,0-53.665,5.204-77.667,14.694c-21.719,8.625-41.708,20.719-59.23,35.64    c-4.75-6.114-11.866-9.125-19.989-9.172c-7.301-0.045-15.424,2.237-23.271,6.663C78.075,95.857,76.161,97.043,74.333,98.368z" style="fill-rule:rgb(56, 56, 163);clip-rule:evenodd;"/></g></g></svg>