<?xml version="1.0" ?><svg height="64" viewBox="0 0 64 64" width="64" xmlns="http://www.w3.org/2000/svg"><defs><style>
      .cls-1 {
        fill: #42b9cc;
      }
    </style></defs><title/><g data-name="customer service-technical support-male" id="customer_service-technical_support-male"><path class="cls-1" d="M8,23h2s3-4,7-4,8,2,10,2a35.36,35.36,0,0,0,6-1l1,3h2S37,7,22,7,8,23,8,23Z"/><polygon class="cls-1" points="23 35 19 35 19 39 25 39 25 35 23 35"/><path class="cls-1" d="M36,23v8s4,0,5-2S41,23,36,23Z"/><path class="cls-1" d="M7,23s-4,0-4,3,0,5,3,5H8S8,23,7,23Z"/><path class="cls-1" d="M22,47c7,0,14,1,18,7s3,9,3,9H1S3,49,11,48,17,47,22,47Z"/><polygon class="cls-1" points="52 1 52 3 51 4 49 2 46 5 48 7 47 8 45 8 45 12 47 12 48 13 47 15 49 18 51 16 52 17 52 19 56 19 56 17 57 16 59 18 62 15 60 13 61 12 63 12 63 8 61 8 60 7 61 5 59 2 57 4 56 3 56 1 52 1"/><g><path d="M54,6a4,4,0,1,0,4,4A4,4,0,0,0,54,6Zm0,6a2,2,0,1,1,2-2A2,2,0,0,1,54,12Z"/><path d="M63,7H61.418c-.017-.042-.034-.083-.051-.123l1.12-1.12a1,1,0,0,0,0-1.414l-2.83-2.83a1,1,0,0,0-1.414,0l-1.12,1.12L57,2.582V1a1,1,0,0,0-1-1H52a1,1,0,0,0-1,1V2.582l-.123.051-1.12-1.12a1,1,0,0,0-1.414,0l-2.83,2.83a1,1,0,0,0,0,1.414l1.12,1.12c-.017.041-.034.082-.051.123H45a1,1,0,0,0-1,1v4a1,1,0,0,0,1,1h1.582c.017.042.034.083.051.123l-1.12,1.12a1,1,0,0,0,0,1.414l2.83,2.83a1,1,0,0,0,1.414,0l1.12-1.12.123.051V19a1,1,0,0,0,1,1h4a1,1,0,0,0,1-1V17.418l.123-.051,1.12,1.12a1,1,0,0,0,1.414,0l2.83-2.83a1,1,0,0,0,0-1.414l-1.12-1.12c.017-.041.034-.082.051-.123H63a1,1,0,0,0,1-1V8A1,1,0,0,0,63,7Zm-1,4H60.71a1,1,0,0,0-.957.708,6.081,6.081,0,0,1-.47,1.141,1,1,0,0,0,.17,1.188l.913.913L58.95,16.366l-.913-.913a1,1,0,0,0-1.187-.17,6.081,6.081,0,0,1-1.141.47A1,1,0,0,0,55,16.71V18H53V16.71a1,1,0,0,0-.708-.957,6.081,6.081,0,0,1-1.141-.47,1,1,0,0,0-1.187.17l-.913.913L47.634,14.95l.913-.913a1,1,0,0,0,.17-1.187,6.081,6.081,0,0,1-.47-1.141A1,1,0,0,0,47.29,11H46V9h1.29a1,1,0,0,0,.957-.708,6.081,6.081,0,0,1,.47-1.141,1,1,0,0,0-.17-1.187l-.913-.913L49.05,3.634l.913.913a1,1,0,0,0,1.188.17,6.081,6.081,0,0,1,1.141-.47A1,1,0,0,0,53,3.29V2h2V3.29a1,1,0,0,0,.708.957,6.081,6.081,0,0,1,1.141.47,1,1,0,0,0,1.188-.17l.913-.913L60.366,5.05l-.913.913a1,1,0,0,0-.17,1.188,6.081,6.081,0,0,1,.47,1.141A1,1,0,0,0,60.71,9H62Z"/><path d="M27,46H17A17.019,17.019,0,0,0,0,63v1H44V63A17.019,17.019,0,0,0,27,46ZM2.033,62A15.02,15.02,0,0,1,17,48H27A15.02,15.02,0,0,1,41.967,62Z"/><path d="M6.214,32H7.469l.058.991A11.022,11.022,0,0,0,16.74,43.2,26.528,26.528,0,0,0,22,44a26.176,26.176,0,0,0,5.212-.79A11.037,11.037,0,0,0,34.9,38H35a7.008,7.008,0,0,0,7-7V25.729a3.414,3.414,0,0,0-1.066-2.446,4.121,4.121,0,0,0-.934-.66V20A18,18,0,0,0,4,20v2.619a4.175,4.175,0,0,0-.934.664A3.414,3.414,0,0,0,2,25.729v2.6A3.976,3.976,0,0,0,6.214,32ZM8.87,21.764A13,13,0,0,1,21.848,8h.3A13,13,0,0,1,35.13,21.764L35.116,22h-.4l-.772-2.316a1,1,0,0,0-1.4-.578A11.128,11.128,0,0,1,28,20a7.467,7.467,0,0,1-2.839-.68A17.647,17.647,0,0,0,18,18c-5.223,0-7.716,2.783-8.556,4h-.56ZM26.86,41.241a.9.9,0,0,0-.1.02A25.012,25.012,0,0,1,22,42a25.784,25.784,0,0,1-4.86-.759,9.048,9.048,0,0,1-7.616-8.367L9,24h1a1,1,0,0,0,.895-.553C10.912,23.413,12.68,20,18,20a15.7,15.7,0,0,1,6.448,1.189A9.272,9.272,0,0,0,28,22a14.126,14.126,0,0,0,4.383-.687l.668,2A1,1,0,0,0,34,24h1l-.522,8.874A8.893,8.893,0,0,1,33.7,36H26V35a1,1,0,0,0-1-1H19a1,1,0,0,0-1,1v4a1,1,0,0,0,1,1h6a1,1,0,0,0,1-1V38h6.468A9,9,0,0,1,26.86,41.241ZM24,36v2H20V36Zm11.887-.09a10.849,10.849,0,0,0,.586-2.92L36.531,32h1.255a4.636,4.636,0,0,0,2.168-.54A4.986,4.986,0,0,1,35.887,35.91ZM40,28.327C40,29.234,38.986,30,37.786,30H36.648L37,24.073l.723-.017a2.518,2.518,0,0,1,1.816.657A1.432,1.432,0,0,1,40,25.729v2.6ZM6,20a16,16,0,0,1,32,0v2.08c-.109,0-.216-.026-.326-.023l-.559.013.011-.19A15,15,0,0,0,22.152,6h-.3A15,15,0,0,0,6.874,21.881l.011.19-.559-.013c-.111,0-.217.017-.326.021ZM4,25.729a1.432,1.432,0,0,1,.464-1.016,2.538,2.538,0,0,1,1.816-.657L7,24.073,7.352,30H6.214C5.014,30,4,29.234,4,28.327Z"/></g></g></svg>