<?xml version="1.0" encoding="utf-8"?>
<!-- Generator: Adobe Illustrator 16.0.0, SVG Export Plug-In . SVG Version: 6.00 Build 0)  -->
<!DOCTYPE svg PUBLIC "-//W3C//DTD SVG 1.1//EN" "http://www.w3.org/Graphics/SVG/1.1/DTD/svg11.dtd">
<svg version="1.1" xmlns="http://www.w3.org/2000/svg" xmlns:xlink="http://www.w3.org/1999/xlink" x="0px" y="0px" width="1200px"
	 height="374.074px" viewBox="0 0 1200 374.074" enable-background="new 0 0 1200 374.074" xml:space="preserve">
<g id="Layer_1">
	<g id="Layer_1_1_">
		<g id="bcg">
			<path fill="#091A3D" d="M0.004,273.777c0,0,107.719,33.813,273.709,40.991c237.794,10.286,595.179,6.791,926.784-169.398V-0.263
				L0,0L0.004,273.777z"/>
		</g>
		<g id="curve">
		</g>
	</g>
	<g id="equipments">
		<g>
			<g>
				<path fill="#FFFFFF" d="M1038.782,126.623v12.653c0,1.748,1.415,3.163,3.163,3.163h15.815v12.653
					c-1.198,0-2.292,0.676-2.83,1.748c-0.536,1.072-0.42,2.354,0.298,3.312l8.985,11.981c-0.043,0.21-0.127,0.406-0.127,0.629
					c0,3.729,1.453,7.234,4.09,9.872c1.439,1.443,2.237,3.361,2.237,5.4v1.854c0,1.744-1.421,3.162-3.163,3.162
					s-3.164-1.418-3.164-3.162c0-1.75-1.414-3.165-3.163-3.165s-3.162,1.415-3.162,3.165c0,5.232,4.256,9.488,9.489,9.488
					c5.232,0,9.489-4.256,9.489-9.488v-1.854c0-3.729-1.452-7.235-4.09-9.873c-1.439-1.442-2.237-3.36-2.237-5.399
					c0-0.223-0.082-0.419-0.126-0.628l8.985-11.981c0.717-0.958,0.835-2.24,0.297-3.313c-0.537-1.071-1.631-1.748-2.829-1.748
					v-12.653h44.285v65.118l-5.399,5.4c-0.594,0.594-0.928,1.396-0.928,2.236v18.979c0,1.748,1.416,3.164,3.164,3.164h44.285
					c1.748,0,3.164-1.416,3.164-3.164v-18.979c0-0.84-0.334-1.644-0.929-2.236l-5.398-5.4v-65.118h28.47
					c1.748,0,3.163-1.415,3.163-3.163v-12.653c0-1-0.493-1.854-1.217-2.433l0.029-0.038l-31.633-25.307
					c-0.066-0.054-0.158-0.049-0.229-0.097c-0.336-0.229-0.706-0.383-1.118-0.468c-0.136-0.028-0.253-0.069-0.392-0.08
					c-0.083-0.006-0.153-0.047-0.237-0.047h-31.634c-0.326,0-0.623,0.094-0.918,0.185l-0.015-0.046l-82.244,25.307l0.015,0.046
					C1039.736,124.043,1038.781,125.2,1038.782,126.623z M1158.985,107.9l19.449,15.56h-19.449V107.9z M1152.659,131.189
					l-22.032-14.979l22.032-9.986v20.399V131.189z M1152.659,167.041l-22.032-14.982l22.032-9.985V167.041z M1152.659,202.891
					l-22.032-14.979l22.032-9.986V202.891z M1127.354,193.335l18.189,12.368h-18.189V193.335z M1127.354,157.484l22.029,14.981
					l-22.029,9.985V157.484z M1127.354,126.623v-4.988l22.028,14.979l-22.028,9.985v-7.322V126.623L1127.354,126.623z
					 M1127.354,104.48h13.83l-13.83,6.27V104.48z M1064.088,142.439h6.326v12.653h-6.326V142.439z M1121.026,123.459h-58.039
					l58.039-17.858V123.459L1121.026,123.459z"/>
			</g>
		</g>
		<g display="none">
			<g display="inline">
				<g>
					<path fill="#FFFFFF" d="M615.803,280.755c-0.088-0.655-0.646-1.144-1.307-1.144h-7.906c-0.66,0-1.219,0.488-1.307,1.144
						l-4.574,34.308c-0.471,3.527-0.709,7.116-0.709,10.671c0,0.728,0.59,1.316,1.318,1.316h18.448c0.729,0,1.316-0.59,1.316-1.316
						c0-3.555-0.237-7.144-0.707-10.671L615.803,280.755z"/>
					<path fill="#FFFFFF" d="M662.627,295.621c-0.387-0.243-0.872-0.262-1.281-0.059l-13.905,6.953v-5.773
						c0-0.457-0.236-0.881-0.625-1.121c-0.39-0.243-0.875-0.262-1.281-0.059l-13.906,6.953v-5.773c0-0.457-0.237-0.881-0.626-1.121
						c-0.389-0.243-0.875-0.262-1.282-0.059l-7.86,3.933c-0.504,0.252-0.792,0.795-0.718,1.353l0.882,6.61
						c0.088,0.654,0.646,1.144,1.307,1.144h3.027v7.907h-1.733c-0.37,0-0.725,0.155-0.974,0.432c-0.25,0.273-0.372,0.641-0.34,1.01
						c0.28,2.979,0.411,5.453,0.411,7.784c0,0.728,0.589,1.316,1.317,1.316h36.896c0.729,0,1.317-0.59,1.317-1.316v-28.991
						C663.253,296.285,663.016,295.861,662.627,295.621z M642.168,315.19c0,0.729-0.589,1.317-1.317,1.317h-7.905
						c-0.729,0-1.317-0.59-1.317-1.317v-5.271c0-0.729,0.589-1.318,1.317-1.318h7.905c0.729,0,1.317,0.591,1.317,1.318V315.19z
						 M657.981,315.19c0,0.729-0.59,1.317-1.317,1.317h-7.906c-0.729,0-1.317-0.59-1.317-1.317v-5.271
						c0-0.729,0.59-1.318,1.317-1.318h7.906c0.729,0,1.317,0.591,1.317,1.318V315.19z"/>
				</g>
			</g>
		</g>
		<g>
			<g>
				<path fill="#FFFFFF" d="M77.287,298.43l-5.08-1.093l12.104-22.696c0.285-0.539,0.304-1.181,0.046-1.734
					c-0.256-0.553-0.76-0.953-1.355-1.08l-6.814-1.465l-8.514-13.172c-0.583-0.904-1.785-1.164-2.688-0.58l-13.173,8.517
					l-0.326-0.069l-8.515-13.176c-0.583-0.902-1.788-1.161-2.688-0.578l-13.175,8.516l-0.327-0.07l-8.514-13.174
					c-0.584-0.901-1.787-1.159-2.688-0.577l-13.174,8.517l-6.814-1.464c-0.597-0.129-1.22,0.03-1.681,0.431
					c-0.46,0.397-0.707,0.988-0.667,1.597l1.716,25.668l-5.083-1.093c-1.05-0.227-2.082,0.441-2.309,1.492
					c-0.225,1.051,0.442,2.084,1.493,2.31l2.955,0.636c-0.895,0.982-1.574,2.18-1.873,3.572c-0.901,4.191,1.776,8.334,5.969,9.232
					c4.192,0.901,8.334-1.774,9.234-5.969c0.3-1.391,0.172-2.763-0.241-4.023l2.113,0.453c-0.894,0.981-1.572,2.181-1.872,3.57
					c-0.899,4.193,1.774,8.334,5.969,9.236c4.191,0.9,8.332-1.775,9.233-5.971c0.299-1.392,0.172-2.765-0.241-4.025l0.271,0.059
					l2.547,3.939c0.281,0.434,0.719,0.734,1.226,0.844l15.2,3.266c0.505,0.11,1.031,0.014,1.463-0.267l3.94-2.547l0.272,0.06
					c-0.897,0.981-1.575,2.182-1.875,3.571c-0.9,4.193,1.775,8.333,5.968,9.233c4.192,0.9,8.331-1.774,9.233-5.969
					c0.298-1.39,0.176-2.762-0.24-4.023l2.115,0.451c-0.896,0.982-1.578,2.184-1.875,3.572c-0.902,4.193,1.778,8.336,5.968,9.236
					c4.193,0.899,8.334-1.777,9.235-5.97c0.298-1.39,0.173-2.765-0.241-4.027l2.958,0.636c1.051,0.227,2.081-0.44,2.308-1.492
					C79.005,299.688,78.338,298.654,77.287,298.43z"/>
			</g>
		</g>
	</g>
</g>
<g id="stars">
	<polygon fill="#D7E8F9" points="150.777,227.711 150.333,226.342 148.892,226.342 150.058,225.494 149.613,224.126 
		150.777,224.973 151.941,224.126 151.497,225.494 152.662,226.342 151.222,226.342 	"/>
	<polygon fill="#D7E8F9" points="176.226,96.672 175.782,95.303 174.341,95.303 175.507,94.456 175.062,93.087 176.226,93.934 
		177.391,93.087 176.946,94.456 178.111,95.303 176.671,95.303 	"/>
	<polygon fill="#D7E8F9" points="938.188,48.503 937.744,47.134 936.303,47.134 937.469,46.287 937.023,44.918 938.188,45.765 
		939.353,44.918 938.908,46.287 940.073,47.134 938.633,47.134 	"/>
	<polygon fill="#D7E8F9" points="54.002,71.002 53.558,69.633 52.118,69.633 53.283,68.786 52.838,67.417 54.002,68.264 
		55.167,67.417 54.723,68.786 55.888,69.633 54.447,69.633 	"/>
	<polygon fill="#D7E8F9" points="513.709,239.129 513.265,237.76 511.825,237.76 512.99,236.912 512.545,235.544 513.709,236.391 
		514.874,235.544 514.429,236.912 515.595,237.76 514.154,237.76 	"/>
	<polygon fill="#D7E8F9" points="894.689,258.493 894.246,257.124 892.805,257.124 893.971,256.276 893.525,254.908 
		894.689,255.755 895.854,254.908 895.41,256.276 896.575,257.124 895.135,257.124 	"/>
	<polygon fill="#D7E8F9" points="369.766,139.215 369.322,137.846 367.881,137.846 369.047,136.998 368.602,135.63 369.766,136.477 
		370.931,135.63 370.486,136.998 371.651,137.846 370.211,137.846 	"/>
	<polygon fill="#D7E8F9" points="636.703,160.689 636.26,159.32 634.818,159.32 635.984,158.473 635.539,157.104 636.703,157.951 
		637.868,157.104 637.424,158.473 638.589,159.32 637.148,159.32 	"/>
	<polygon fill="#D7E8F9" points="537.442,52.043 536.998,50.674 535.557,50.674 536.723,49.827 536.278,48.458 537.442,49.305 
		538.606,48.458 538.162,49.827 539.327,50.674 537.887,50.674 	"/>
	<polygon fill="#D7E8F9" points="461.597,83.133 461.153,81.764 459.712,81.764 460.878,80.916 460.433,79.548 461.597,80.395 
		462.761,79.548 462.317,80.916 463.482,81.764 462.042,81.764 	"/>
	<polygon fill="#D7E8F9" points="32.222,15.403 31.323,12.636 28.413,12.636 30.769,10.925 29.87,8.16 32.222,9.87 34.575,8.16 
		33.677,10.925 36.031,12.636 33.12,12.636 	"/>
</g>
</svg>
