<?xml version="1.0" encoding="iso-8859-1"?>
<!-- Generator: Adobe Illustrator 19.0.0, SVG Export Plug-In . SVG Version: 6.00 Build 0)  -->
<svg version="1.1" id="Capa_1" xmlns="http://www.w3.org/2000/svg" xmlns:xlink="http://www.w3.org/1999/xlink" x="0px" y="0px"
	 viewBox="0 0 512.001 512.001" style="enable-background:new 0 0 512.001 512.001;" xml:space="preserve">
<circle style="fill:#005ECE;" cx="256.001" cy="256" r="256"/>
<path style="fill:#00479B;" d="M105.503,336.907c-12.724,6.622-21.417,19.921-21.417,35.259v16.557l117.983,117.586
	c0.314,0.068,0.628,0.134,0.943,0.2c0.065,0.013,0.129,0.027,0.195,0.041c0.25,0.052,0.501,0.105,0.752,0.157
	c0.08,0.017,0.159,0.033,0.239,0.049c0.269,0.056,0.538,0.11,0.807,0.165c0.041,0.008,0.082,0.017,0.125,0.024
	c0.308,0.062,0.618,0.124,0.927,0.186c0.079,0.016,0.159,0.031,0.238,0.047c0.233,0.046,0.465,0.091,0.698,0.137
	c0.101,0.02,0.201,0.039,0.303,0.058c0.224,0.043,0.447,0.086,0.67,0.128c0.086,0.017,0.173,0.033,0.258,0.049
	c0.311,0.059,0.622,0.117,0.933,0.175c0.032,0.006,0.065,0.011,0.097,0.018c0.275,0.051,0.55,0.101,0.825,0.151
	c0.092,0.017,0.186,0.033,0.278,0.05c0.228,0.041,0.457,0.082,0.686,0.122c0.091,0.017,0.183,0.032,0.274,0.049
	c0.62,0.109,1.24,0.216,1.861,0.321c0.088,0.016,0.177,0.03,0.265,0.045c0.229,0.038,0.457,0.076,0.687,0.115
	c0.096,0.016,0.193,0.031,0.288,0.047c0.257,0.042,0.513,0.083,0.77,0.125c0.055,0.009,0.109,0.018,0.165,0.027
	c0.316,0.05,0.633,0.1,0.949,0.149c0.062,0.01,0.126,0.02,0.188,0.029c0.252,0.039,0.504,0.078,0.757,0.116
	c0.087,0.013,0.174,0.027,0.26,0.04c0.262,0.039,0.524,0.078,0.786,0.117c0.053,0.008,0.108,0.016,0.161,0.023
	c0.651,0.096,1.304,0.188,1.957,0.279c0.055,0.008,0.109,0.016,0.164,0.023c0.269,0.038,0.538,0.073,0.807,0.11
	c0.069,0.009,0.137,0.019,0.206,0.028c0.656,0.088,1.311,0.174,1.968,0.257c0.03,0.003,0.06,0.008,0.09,0.011
	c0.293,0.037,0.584,0.072,0.877,0.109c0.062,0.008,0.124,0.016,0.186,0.023c0.997,0.121,1.996,0.237,2.996,0.347
	c0.032,0.003,0.063,0.007,0.096,0.01c0.321,0.036,0.641,0.07,0.963,0.103c0.014,0.001,0.029,0.003,0.043,0.004
	c0.689,0.072,1.379,0.142,2.069,0.209c0.008,0,0.016,0.001,0.023,0.002c0.343,0.033,0.686,0.067,1.03,0.098
	c0.002,0,0.004,0,0.007,0.001c1.047,0.098,2.098,0.189,3.149,0.274c0,0,15.588,0.843,20.822,0.843
	c14.377,0,30.742-1.77,35.548-2.435l0.012-0.001c3.693-0.512,7.362-1.103,11.002-1.77c0.007-0.001,0.012-0.002,0.019-0.003
	c1.816-0.334,3.626-0.686,5.429-1.057c0.007-0.001,0.013-0.002,0.02-0.003c1.804-0.372,3.602-0.762,5.392-1.172
	c0.003,0,0.006-0.001,0.009-0.002c1.072-0.245,2.142-0.497,3.209-0.756c0.006-0.001,0.011-0.002,0.017-0.004
	c3.567-0.865,7.105-1.805,10.612-2.818c0.007-0.002,0.013-0.004,0.02-0.006c1.043-0.302,2.084-0.609,3.121-0.924
	c0.012-0.003,0.023-0.008,0.036-0.011c0.691-0.209,1.382-0.422,2.071-0.638c0.004-0.001,0.01-0.003,0.014-0.004
	c1.035-0.324,2.068-0.653,3.098-0.99c0.011-0.003,0.021-0.007,0.032-0.01c0.685-0.224,1.368-0.451,2.05-0.679
	c0.007-0.002,0.013-0.004,0.021-0.007c1.022-0.344,2.041-0.695,3.058-1.05c0.016-0.006,0.031-0.011,0.047-0.017
	c1.704-0.598,3.399-1.212,5.087-1.845c0.007-0.002,0.013-0.004,0.019-0.007c1.693-0.634,3.377-1.287,5.053-1.956
	c0.003-0.001,0.006-0.002,0.009-0.003c4.366-1.744,8.674-3.605,12.918-5.58c0,0,0,0,0.001,0
	c56.829-26.43,102.338-73.105,127.26-130.758l0.001-0.001c8.735-20.206,14.94-41.76,18.219-64.264L307,90.913
	c-7.224-7.302-15.994-13.069-25.77-16.758l-0.371-0.138c-0.062-0.023-0.124-0.047-0.186-0.069l-17.809-18.296h-13.727v14.244
	c-34.081,3.252-61.344,30.516-64.597,64.597h-14.245v13.727l18.365,17.995l0.138,0.371c3.689,9.776,9.455,18.547,16.757,25.769
	l52.566,52.568c-0.888-0.036-1.782-0.053-2.679-0.053l0,0c-10.667,0-20.746,2.515-29.683,6.979c-1.162-0.21-2.356-0.326-3.578-0.326
	c-2.787,0-5.441,0.572-7.85,1.603l-33.103-33.101c-12.005-12.148-28.676-19.675-47.106-19.675l0,0
	c-36.576,0-66.226,29.65-66.226,66.226v27.815c0,3.419,1.459,6.514,3.785,8.693L105.503,336.907z"/>
<path style="fill:#FFFFFF;" d="M339.479,134.492h-12.018c-3.252-34.081-30.515-61.344-64.597-64.597V57.878v-2.226h-2.226h-9.275
	h-2.226v2.226v12.018c-34.081,3.252-61.344,30.516-64.597,64.597h-12.019h-2.226v2.226v9.275v2.226h2.226h12.018
	c3.252,34.081,30.515,61.344,64.597,64.597v12.019v2.226h2.226h9.275h2.226v-2.226v-12.018
	c34.081-3.252,61.344-30.516,64.597-64.597h12.019h2.226v-2.226v-9.275v-2.226h-2.226V134.492z M302.748,148.221h10.912
	c-1.528,12.87-7.376,24.928-16.622,34.174c-9.246,9.246-21.304,15.094-34.174,16.622v-10.912v-2.226h-2.226h-9.275h-2.226v2.226
	v10.912c-12.87-1.528-24.928-7.376-34.174-16.622c-9.246-9.247-15.094-21.304-16.622-34.174h10.911h2.226v-2.226v-9.275v-2.226
	h-2.226H198.34c1.528-12.87,7.376-24.928,16.622-34.174c9.246-9.246,21.304-15.094,34.174-16.622v10.911v2.226h2.226h9.275h2.226
	v-2.226V83.696c12.87,1.528,24.928,7.376,34.174,16.622c9.246,9.247,15.094,21.304,16.622,34.174h-10.911h-2.226v2.226v9.275v2.226
	h2.226V148.221z"/>
<circle style="fill:#FF3501;" cx="256.001" cy="141.357" r="22.261"/>
<path style="fill:#FFFFFF;" d="M427.916,388.723H327.841v-16.557c0-21.945,17.79-39.736,39.736-39.736h20.604
	c21.945,0,39.736,17.79,39.736,39.736V388.723z"/>
<path style="fill:#E1E3FA;" d="M388.18,332.432h-10.301v56.292h50.037v-16.557C427.916,350.221,410.126,332.432,388.18,332.432z"/>
<polygon points="370.533,372.535 377.879,382.468 377.879,382.551 377.879,382.551 377.879,382.468 377.879,382.468 
	385.224,372.535 381.728,345.422 390.387,332.432 365.369,332.432 374.03,345.422 "/>
<path style="fill:#1D1D1F;" d="M377.879,200.348L377.879,200.348c-36.576,0-66.226,29.65-66.226,66.226v26.49h132.451v-26.49
	C444.104,229.998,414.453,200.348,377.879,200.348z"/>
<path id="SVGCleanerId_0" d="M377.879,200.348L377.879,200.348v92.715h66.226v-26.49
	C444.104,229.998,414.453,200.348,377.879,200.348z"/>
<g>
	<path id="SVGCleanerId_0_1_" d="M377.879,200.348L377.879,200.348v92.715h66.226v-26.49
		C444.104,229.998,414.453,200.348,377.879,200.348z"/>
</g>
<path style="fill:#FFC477;" d="M338.143,306.308h-14.57c-6.556,0-11.921-5.364-11.921-11.921v-2.649
	c0-6.556,5.364-11.921,11.921-11.921h14.57V306.308z"/>
<path style="fill:#FFB655;" d="M417.613,306.308h14.57c6.556,0,11.921-5.364,11.921-11.921v-2.649
	c0-6.556-5.364-11.921-11.921-11.921h-14.57V306.308z"/>
<path style="fill:#FFDAAA;" d="M399.85,259.155c-2.104-1.578-4.089-3.241-5.959-4.97c-18.891,12.267-41.116,19.011-64.134,19.011
	h-11.114c-0.24,2.175-0.368,4.383-0.368,6.623c0,32.918,26.685,59.603,59.603,59.603s59.603-26.685,59.603-59.603
	c0-2.258-0.13-4.486-0.375-6.679C424.903,272.647,411.636,267.995,399.85,259.155z"/>
<path style="fill:#FFC477;" d="M437.107,273.14c-12.205-0.493-25.47-5.144-37.257-13.984c-2.104-1.578-4.089-3.241-5.959-4.97
	c-5.11,3.318-10.465,6.229-16.012,8.714v76.523c32.918,0,59.603-26.685,59.603-59.603
	C437.481,277.561,437.352,275.332,437.107,273.14z"/>
<circle cx="346.702" cy="288.367" r="8.554"/>
<circle cx="409.055" cy="288.367" r="8.554"/>
<path style="fill:#F072AE;" d="M377.879,326.176c10.972,0,19.868-8.895,19.868-19.868h-39.736
	C358.011,317.282,366.905,326.176,377.879,326.176z"/>
<path style="fill:#ED539D;" d="M377.879,306.308v19.868c10.972,0,19.868-8.895,19.868-19.868H377.879z"/>
<path style="fill:#FFFFFF;" d="M184.16,388.723H84.085v-16.557c0-21.945,17.79-39.736,39.736-39.736h20.604
	c21.945,0,39.736,17.79,39.736,39.736V388.723z"/>
<path style="fill:#E1E3FA;" d="M144.425,332.432h-10.302v56.292h50.037v-16.557C184.16,350.221,166.369,332.432,144.425,332.432z"/>
<polygon points="126.777,372.535 134.122,382.468 134.122,382.551 134.122,382.551 134.122,382.468 134.122,382.468 
	141.468,372.535 137.971,345.422 146.632,332.432 121.614,332.432 130.273,345.422 "/>
<path style="fill:#1D1D1F;" d="M134.122,200.348L134.122,200.348c-36.576,0-66.226,29.65-66.226,66.226v26.49h132.452v-26.49
	C200.348,229.998,170.698,200.348,134.122,200.348z"/>
<path id="SVGCleanerId_1" d="M134.122,200.348L134.122,200.348v92.715h66.226v-26.49
	C200.348,229.998,170.698,200.348,134.122,200.348z"/>
<g>
	<path id="SVGCleanerId_1_1_" d="M134.122,200.348L134.122,200.348v92.715h66.226v-26.49
		C200.348,229.998,170.698,200.348,134.122,200.348z"/>
</g>
<path style="fill:#FFC477;" d="M94.388,306.308h-14.57c-6.556,0-11.921-5.364-11.921-11.921v-2.649
	c0-6.556,5.364-11.921,11.921-11.921h14.57C94.388,279.818,94.388,306.308,94.388,306.308z"/>
<path style="fill:#FFB655;" d="M173.858,306.308h14.57c6.556,0,11.921-5.364,11.921-11.921v-2.649
	c0-6.556-5.364-11.921-11.921-11.921h-14.57V306.308z"/>
<path style="fill:#FFDAAA;" d="M156.095,259.155c-2.104-1.578-4.089-3.241-5.959-4.97c-18.891,12.267-41.116,19.011-64.134,19.011
	H74.888c-0.24,2.175-0.368,4.383-0.368,6.623c0,32.918,26.685,59.603,59.603,59.603s59.603-26.685,59.603-59.603
	c0-2.258-0.13-4.486-0.375-6.679C181.147,272.647,167.881,267.995,156.095,259.155z"/>
<path style="fill:#FFC477;" d="M193.352,273.14c-12.205-0.493-25.47-5.144-37.257-13.984c-2.104-1.578-4.089-3.241-5.959-4.97
	c-5.11,3.318-10.465,6.229-16.012,8.714v76.523c32.918,0,59.603-26.685,59.603-59.603
	C193.726,277.561,193.596,275.332,193.352,273.14z"/>
<circle cx="102.946" cy="288.367" r="8.554"/>
<circle cx="165.299" cy="288.367" r="8.554"/>
<path style="fill:#F072AE;" d="M134.122,326.176c10.972,0,19.868-8.895,19.868-19.868h-39.736
	C114.254,317.282,123.15,326.176,134.122,326.176z"/>
<path style="fill:#ED539D;" d="M134.122,306.308v19.868c10.972,0,19.868-8.895,19.868-19.868H134.122z"/>
<path style="fill:#FFFFFF;" d="M305.703,434.087H205.181v-16.63c0-22.044,17.87-39.913,39.913-39.913h20.696
	c22.044,0,39.913,17.87,39.913,39.913v16.63H305.703z"/>
<path style="fill:#E1E3FA;" d="M265.791,377.543h-10.348v56.544h50.261v-16.63C305.703,395.413,287.834,377.543,265.791,377.543z"/>
<polygon points="248.065,417.826 255.443,427.805 255.443,427.887 255.443,427.887 255.443,427.805 255.443,427.805 
	262.821,417.826 259.309,390.591 268.008,377.543 242.878,377.543 251.576,390.591 "/>
<path style="fill:#1D1D1F;" d="M255.443,244.87L255.443,244.87c-10.667,0-20.746,2.515-29.683,6.979
	c-1.162-0.21-2.356-0.326-3.578-0.326c-11.02,0-19.955,8.933-19.957,19.952c-0.068,0.09-0.135,0.18-0.201,0.269
	c-11.185,1.7-19.755,11.357-19.755,23.017c0,6.344,2.541,12.093,6.656,16.293c-0.001,0.112-0.004,0.225-0.004,0.338V338h133.043
	v-26.608C321.964,274.652,292.181,244.87,255.443,244.87z"/>
<path d="M255.443,244.87L255.443,244.87V338h66.522v-26.608C321.964,274.652,292.181,244.87,255.443,244.87z"/>
<path style="fill:#FFC477;" d="M215.529,351.304h-14.634c-6.586,0-11.974-5.388-11.974-11.974v-2.661
	c0-6.586,5.388-11.974,11.974-11.974h14.634V351.304z"/>
<path style="fill:#FFB655;" d="M295.356,351.304h14.634c6.586,0,11.974-5.388,11.974-11.974v-2.661
	c0-6.586-5.388-11.974-11.974-11.974h-14.634V351.304z"/>
<path style="fill:#FFDAAA;" d="M277.512,303.94c-2.114-1.585-4.107-3.256-5.986-4.992c-18.974,12.321-41.299,19.095-64.421,19.095
	h-11.163c-0.242,2.185-0.37,4.403-0.37,6.653c0,33.065,26.804,59.869,59.869,59.869s59.869-26.804,59.869-59.869
	c0-2.268-0.13-4.506-0.376-6.708C302.677,317.491,289.352,312.82,277.512,303.94z"/>
<path style="fill:#FFC477;" d="M314.936,317.987c-12.259-0.495-25.584-5.167-37.424-14.047c-2.114-1.585-4.107-3.256-5.986-4.992
	c-5.132,3.332-10.512,6.256-16.083,8.753v76.865c33.065,0,59.87-26.804,59.87-59.869
	C315.312,322.428,315.182,320.189,314.936,317.987z"/>
<circle cx="224.123" cy="333.29" r="8.593"/>
<circle cx="286.765" cy="333.29" r="8.593"/>
<path style="fill:#F072AE;" d="M255.443,371.261c11.021,0,19.957-8.934,19.957-19.957h-39.913
	C235.486,362.326,244.42,371.261,255.443,371.261z"/>
<path style="fill:#ED539D;" d="M255.443,351.304v19.957c11.021,0,19.957-8.934,19.957-19.957H255.443z"/>
<g>
</g>
<g>
</g>
<g>
</g>
<g>
</g>
<g>
</g>
<g>
</g>
<g>
</g>
<g>
</g>
<g>
</g>
<g>
</g>
<g>
</g>
<g>
</g>
<g>
</g>
<g>
</g>
<g>
</g>
</svg>
