<?xml version="1.0" encoding="iso-8859-1"?>
<!-- Generator: Adobe Illustrator 19.0.0, SVG Export Plug-In . SVG Version: 6.00 Build 0)  -->
<svg version="1.1" id="Capa_1" xmlns="http://www.w3.org/2000/svg" xmlns:xlink="http://www.w3.org/1999/xlink" x="0px" y="0px"
	 viewBox="0 0 512 512" style="enable-background:new 0 0 512 512;" xml:space="preserve">
<circle style="fill:#57A4FF;" cx="256" cy="256" r="256"/>
<g>
	<path style="fill:#2488FF;" d="M233.183,510.997C240.7,511.662,248.31,512,256,512c141.385,0,256-114.616,256-256
		c0-3.659-0.077-7.298-0.229-10.92L355.257,88.489c-7.994-6.621-16.959-11.844-26.648-15.522l-0.002,0.004
		c-0.003-0.001-0.008-0.003-0.011-0.004l-3.637,9.582l-14.256-14.434l-0.151-0.026c-10.261-1.715-20.629-1.743-30.816-0.083
		l2.536,15.561c-2.745,0.447-5.451,1.038-8.107,1.768l-12.36-12.553c-9.685,3.633-18.666,8.798-26.694,15.351l9.973,12.217
		c-3.986,3.255-7.661,6.899-10.958,10.89l-12.158-10.042c-6.61,8.003-11.819,16.977-15.484,26.673l12.535,12.354
		c-0.736,2.649-1.341,5.363-1.806,8.135l-0.942-0.157l-14.499-3.024c-0.043,0.206-0.081,0.413-0.116,0.62
		c-0.56,3.35-0.939,6.712-1.14,10.075c-9.412,4.457-18.134,10.133-25.963,16.826c-5.34-3.624-11.786-5.743-18.726-5.743
		c-18.442,0-33.391,14.949-33.391,33.391c0,9.363,3.856,17.823,10.064,23.884c0.184,0.187,0.37,0.373,0.557,0.557
		c0.184,0.187,0.37,0.373,0.557,0.557c0.184,0.187,0.37,0.373,0.557,0.557c0.184,0.187,0.37,0.373,0.557,0.557
		c0.184,0.187,0.37,0.373,0.557,0.557c0.184,0.187,0.37,0.373,0.557,0.557c0.184,0.187,0.37,0.373,0.557,0.557
		c0.184,0.187,0.37,0.373,0.557,0.557c0.184,0.187,0.37,0.373,0.557,0.557c0.184,0.187,0.37,0.373,0.557,0.557
		c0.184,0.187,0.37,0.373,0.557,0.557c0.184,0.187,0.37,0.373,0.557,0.557c0.184,0.187,0.37,0.373,0.557,0.557
		c0.184,0.187,0.37,0.373,0.557,0.557c0.184,0.187,0.37,0.373,0.557,0.557c0.184,0.187,0.37,0.373,0.557,0.557
		c0.184,0.187,0.37,0.373,0.557,0.557c0.184,0.187,0.37,0.373,0.557,0.557c0.184,0.187,0.37,0.373,0.557,0.557
		c0.087,0.089,0.175,0.177,0.263,0.266c-6.26,13.078-9.77,27.723-9.77,43.189c0,27.798,11.323,52.952,29.608,71.1
		c0.185,0.186,0.371,0.372,0.557,0.557c0.185,0.186,0.371,0.372,0.557,0.557c0.185,0.186,0.371,0.372,0.557,0.557
		c0.185,0.186,0.371,0.372,0.557,0.557c0.185,0.186,0.371,0.372,0.557,0.557c0.185,0.186,0.371,0.372,0.557,0.557
		c0.185,0.186,0.371,0.372,0.557,0.557c0.185,0.186,0.371,0.372,0.557,0.557c0.185,0.186,0.371,0.372,0.557,0.557
		c0.185,0.186,0.371,0.372,0.557,0.557c0.185,0.186,0.371,0.372,0.557,0.557c0.185,0.186,0.371,0.372,0.557,0.557
		c0.185,0.186,0.371,0.372,0.557,0.557c0.185,0.186,0.371,0.372,0.557,0.557c0.185,0.186,0.371,0.372,0.557,0.557
		c0.185,0.186,0.371,0.372,0.557,0.557c0.185,0.186,0.371,0.372,0.557,0.557c0.185,0.186,0.371,0.372,0.557,0.557
		c0.185,0.186,0.371,0.372,0.557,0.557c0.185,0.186,0.371,0.372,0.557,0.557c0.185,0.186,0.371,0.372,0.557,0.557
		c0.185,0.186,0.371,0.372,0.557,0.557c0.185,0.186,0.371,0.372,0.557,0.557c0.185,0.186,0.371,0.372,0.557,0.557
		c0.185,0.186,0.371,0.372,0.557,0.557c0.185,0.186,0.371,0.372,0.557,0.557c0.185,0.186,0.371,0.372,0.557,0.557
		c0.185,0.186,0.371,0.372,0.557,0.557c0.185,0.186,0.371,0.372,0.557,0.557c0.185,0.186,0.371,0.372,0.557,0.557
		c0.185,0.186,0.371,0.372,0.557,0.557c0.185,0.186,0.371,0.372,0.557,0.557c0.185,0.186,0.371,0.372,0.557,0.557
		c0.185,0.186,0.371,0.372,0.557,0.557c0.185,0.186,0.371,0.372,0.557,0.557c0.185,0.186,0.371,0.372,0.557,0.557
		c0.185,0.186,0.371,0.372,0.557,0.557c0.185,0.186,0.371,0.372,0.557,0.557c0.185,0.186,0.371,0.372,0.557,0.557
		c0.185,0.186,0.371,0.372,0.557,0.557c0.185,0.186,0.371,0.372,0.557,0.557c0.185,0.186,0.371,0.372,0.557,0.557
		c0.185,0.186,0.371,0.372,0.557,0.557c0.185,0.186,0.371,0.372,0.557,0.557c0.185,0.186,0.371,0.372,0.557,0.557
		c0.185,0.186,0.371,0.372,0.557,0.557c0.185,0.186,0.371,0.372,0.557,0.557c0.185,0.186,0.371,0.372,0.557,0.557
		c0.185,0.186,0.371,0.372,0.557,0.557c0.185,0.186,0.371,0.372,0.557,0.557c0.185,0.186,0.371,0.372,0.557,0.557
		c0.185,0.186,0.371,0.372,0.557,0.557c0.185,0.186,0.371,0.372,0.557,0.557c0.185,0.186,0.371,0.372,0.557,0.557
		c0.185,0.186,0.371,0.372,0.557,0.557c0.115,0.116,0.229,0.23,0.345,0.346c-16.481,12.161-27.171,31.717-27.171,53.771v11.13
		L233.183,510.997z"/>
</g>
<path style="fill:#2D2D30;" d="M166.957,445.217H321.67v-11.13c0-36.883-29.9-66.783-66.783-66.783h-21.148
	c-36.883,0-66.783,29.9-66.783,66.783V445.217z"/>
<path style="fill:#3E3D42;" d="M233.739,367.304H256v77.913h-89.043v-11.13C166.957,397.204,196.856,367.304,233.739,367.304z"/>
<path d="M122.435,200.348c0-18.442,14.949-33.391,33.391-33.391c6.94,0,13.385,2.119,18.726,5.743
	c20.419-17.455,46.915-28.004,75.883-28.004c64.545,0,116.87,52.324,116.87,116.87s-52.324,116.87-116.87,116.87
	c-32.705,0-62.266-13.439-83.478-35.09v-79.969c-12.098-5.748-20.759-17.545-22.079-31.484
	C131.816,227.359,122.435,214.953,122.435,200.348z"/>
<path style="fill:#1D1D1F;" d="M155.826,166.957c6.94,0,13.385,2.119,18.726,5.743c20.419-17.455,46.915-28.004,75.883-28.004
	c1.867,0,3.721,0.049,5.565,0.135v233.469c-1.844,0.087-3.699,0.135-5.565,0.135c-32.705,0-62.266-13.439-83.478-35.09v-79.969
	c-12.098-5.748-20.759-17.545-22.079-31.484c-13.062-4.532-22.442-16.938-22.442-31.544
	C122.435,181.906,137.384,166.957,155.826,166.957z"/>
<path style="fill:#FFDAAA;" d="M144.883,231.976c1.912,19.73,18.538,35.154,38.77,35.154c14.172,0,26.575-7.57,33.391-18.886
	c6.816,11.316,19.219,18.886,33.391,18.886c1.89,0,3.747-0.142,5.565-0.402v22.663l0,0c12.243,0,22.261,10.017,22.261,22.261l0,0
	c0,12.243-10.017,22.261-22.261,22.261l0,0v44.522c-11.13,0-14.608,0-22.261,0c-55.325,0-100.174-44.849-100.174-100.174
	C133.565,261.562,137.657,245.821,144.883,231.976z"/>
<circle cx="203.598" cy="292.641" r="14.377"/>
<path style="fill:#F072AE;" d="M144.72,324.236c-0.013-0.482-0.024-0.966-0.024-1.454h44.522c0,16.73-8.203,30.586-18.905,33.013
	C159.776,347.167,151.032,336.433,144.72,324.236z"/>
<path style="fill:#D8D7DA;" d="M388.363,146.307l-15.565,2.512c-0.829-5.137-2.163-10.136-3.955-14.936l14.771-5.515
	c-3.617-9.689-8.77-18.678-15.312-26.716l-12.231,9.955c-3.248-3.99-6.887-7.671-10.874-10.973l10.06-12.143
	c-7.994-6.621-16.959-11.845-26.648-15.522l-5.596,14.743c-4.739-1.799-9.721-3.167-14.909-4.044l2.599-15.553l-0.151-0.026
	c-10.261-1.715-20.629-1.743-30.816-0.083l2.536,15.561c-5.136,0.837-10.132,2.178-14.93,3.977l-5.537-14.765
	c-9.685,3.633-18.666,8.797-26.694,15.351l9.973,12.217c-3.986,3.255-7.661,6.899-10.958,10.89l-12.158-10.042
	c-6.61,8.003-11.819,16.977-15.484,26.673l14.753,5.574c-1.792,4.743-3.154,9.726-4.024,14.915l-0.942-0.157l-14.499-3.024
	c-0.043,0.206-0.082,0.413-0.117,0.62c-1.712,10.243-1.743,20.596-0.09,30.769l15.563-2.527c0.834,5.136,2.173,10.133,3.97,14.931
	l-14.766,5.53c3.627,9.687,8.789,18.67,15.338,26.702l12.222-9.967c3.252,3.988,6.895,7.664,10.886,10.965l-10.047,12.153
	c7.999,6.614,16.971,11.827,26.664,15.496l5.582-14.75c4.742,1.794,9.724,3.158,14.913,4.03l-2.599,15.551l0.076,0.012
	c10.229,1.71,20.567,1.743,30.723,0.098l-2.52-15.564c5.137-0.831,10.135-2.168,14.935-3.962l5.522,14.769
	c9.689-3.623,18.676-8.78,26.71-15.326l-9.962-12.226c3.989-3.25,7.668-6.891,10.969-10.88l12.148,10.054
	c6.618-7.996,11.836-16.965,15.509-26.656l-14.747-5.59c1.796-4.74,3.162-9.722,4.037-14.911l15.551,2.599l0.019-0.114
	C389.965,166.771,390,156.449,388.363,146.307z M336.986,162.359c-0.007,0.268-0.017,0.536-0.028,0.804
	c-0.009,0.205-0.017,0.41-0.029,0.614c-0.023,0.415-0.053,0.828-0.089,1.239c-0.006,0.063-0.011,0.128-0.017,0.191
	c-0.735,8.154-3.797,15.635-8.518,21.777l0.006,0.004c-0.067,0.086-0.137,0.169-0.204,0.255c-0.152,0.195-0.307,0.387-0.463,0.58
	c-0.2,0.247-0.403,0.492-0.609,0.735c-0.155,0.183-0.311,0.364-0.469,0.544c-0.135,0.154-0.27,0.307-0.407,0.46
	c-0.26,0.287-0.523,0.572-0.791,0.853c-0.106,0.111-0.214,0.219-0.322,0.329c-0.223,0.228-0.449,0.455-0.677,0.678
	c-0.098,0.096-0.195,0.193-0.294,0.287c-0.317,0.305-0.639,0.604-0.966,0.899c-0.058,0.052-0.117,0.104-0.175,0.155
	c-0.329,0.295-0.664,0.584-1.004,0.868c-0.023,0.02-0.048,0.04-0.071,0.06c-5.965,4.973-13.329,8.326-21.414,9.381l0.001,0.006
	c-0.715,0.093-1.436,0.163-2.16,0.22c-0.063,0.006-0.127,0.01-0.19,0.014c-0.976,0.072-1.959,0.11-2.947,0.115
	c-0.065,0-0.128,0.002-0.193,0.002c-0.041,0-0.081-0.001-0.121-0.001c-0.278-0.001-0.557-0.004-0.836-0.011
	c-0.268-0.006-0.535-0.017-0.803-0.028c-0.19-0.008-0.38-0.016-0.571-0.026c-0.432-0.023-0.863-0.055-1.291-0.091
	c-0.057-0.004-0.114-0.01-0.17-0.016c-8.19-0.732-15.702-3.811-21.86-8.562L269.3,194.7c-0.082-0.063-0.161-0.13-0.243-0.195
	c-0.187-0.147-0.372-0.296-0.555-0.445c-0.264-0.214-0.524-0.431-0.782-0.65c-0.165-0.14-0.328-0.282-0.491-0.424
	c-0.164-0.144-0.327-0.287-0.488-0.433c-0.279-0.253-0.555-0.51-0.827-0.769c-0.129-0.124-0.256-0.249-0.384-0.375
	c-0.21-0.206-0.419-0.414-0.624-0.624c-0.105-0.107-0.21-0.214-0.314-0.322c-0.295-0.308-0.584-0.621-0.87-0.937
	c-0.073-0.081-0.145-0.164-0.217-0.245c-0.278-0.313-0.551-0.63-0.82-0.951c-0.026-0.031-0.052-0.061-0.078-0.091
	c-0.315-0.38-0.623-0.765-0.925-1.155c-0.016-0.02-0.03-0.039-0.046-0.059c-4.427-5.744-7.402-12.664-8.373-20.213l-0.004,0.001
	c-0.042-0.329-0.076-0.66-0.11-0.992c-0.006-0.05-0.012-0.1-0.017-0.151c-0.032-0.315-0.059-0.63-0.085-0.947
	c-0.006-0.075-0.011-0.149-0.017-0.224c-0.071-0.973-0.109-1.953-0.112-2.94c0-0.057-0.002-0.114-0.002-0.171
	c0-0.047,0.001-0.094,0.002-0.14c0.001-0.288,0.003-0.577,0.011-0.866c0.007-0.274,0.018-0.547,0.029-0.819
	c0.01-0.228,0.021-0.457,0.035-0.687c0.022-0.382,0.05-0.761,0.082-1.141c0.007-0.079,0.013-0.157,0.021-0.236
	c0.747-8.144,3.815-15.615,8.539-21.746l-0.006-0.004c0.065-0.085,0.134-0.165,0.199-0.248c0.148-0.189,0.298-0.375,0.45-0.562
	c0.209-0.258,0.421-0.514,0.637-0.767c0.146-0.171,0.293-0.343,0.442-0.512c0.139-0.159,0.279-0.318,0.421-0.474
	c0.256-0.284,0.516-0.563,0.78-0.839c0.116-0.121,0.235-0.24,0.353-0.361c0.214-0.218,0.43-0.435,0.649-0.649
	c0.102-0.1,0.204-0.2,0.307-0.299c0.313-0.299,0.629-0.593,0.951-0.884c0.072-0.065,0.146-0.129,0.218-0.194
	c0.319-0.284,0.642-0.563,0.971-0.838c0.028-0.023,0.056-0.048,0.085-0.071c0.384-0.319,0.774-0.63,1.168-0.936
	c0.01-0.008,0.021-0.016,0.031-0.023c5.746-4.435,12.67-7.42,20.224-8.397l-0.001-0.004c0.373-0.049,0.748-0.087,1.122-0.126
	c0.009-0.001,0.019-0.002,0.028-0.003c0.319-0.032,0.64-0.06,0.961-0.086c0.071-0.006,0.144-0.011,0.216-0.017
	c0.973-0.071,1.951-0.109,2.936-0.114c0.061,0,0.121-0.002,0.183-0.002c0.046,0,0.09,0.001,0.136,0.002
	c0.283,0.001,0.567,0.003,0.85,0.011c0.275,0.007,0.548,0.017,0.821,0.029c0.211,0.009,0.423,0.019,0.636,0.031
	c0.401,0.023,0.8,0.052,1.198,0.086c0.07,0.007,0.139,0.012,0.209,0.019c8.151,0.74,15.629,3.805,21.767,8.529l0.004-0.006
	c0.086,0.066,0.167,0.136,0.253,0.201c0.189,0.148,0.376,0.299,0.563,0.451c0.256,0.208,0.51,0.417,0.761,0.631
	c0.176,0.149,0.349,0.299,0.523,0.451c0.157,0.138,0.314,0.276,0.469,0.416c0.285,0.258,0.568,0.519,0.845,0.785
	c0.117,0.112,0.232,0.226,0.348,0.339c0.223,0.217,0.442,0.436,0.659,0.659c0.099,0.101,0.198,0.201,0.296,0.304
	c0.302,0.314,0.598,0.633,0.889,0.956c0.059,0.066,0.118,0.134,0.177,0.199c0.288,0.324,0.572,0.652,0.851,0.985
	c0.022,0.026,0.043,0.051,0.066,0.078c0.323,0.387,0.638,0.781,0.946,1.18c0.001,0.001,0.001,0.002,0.002,0.003
	c4.447,5.747,7.437,12.675,8.419,20.235l0.006-0.001c0.092,0.708,0.16,1.421,0.217,2.137c0.006,0.067,0.01,0.134,0.016,0.2
	c0.072,0.975,0.11,1.958,0.114,2.946c0,0.062,0.002,0.124,0.002,0.186c0,0.042-0.001,0.085-0.001,0.127
	C336.996,161.794,336.994,162.076,336.986,162.359z"/>
<path style="fill:#FFFFFF;" d="M294.957,103.578c-31.927,0-57.808,25.882-57.808,57.808s25.882,57.808,57.808,57.808
	s57.808-25.882,57.808-57.808S326.883,103.578,294.957,103.578z M294.957,203.428c-23.219,0-42.043-18.823-42.043-42.043
	s18.823-42.043,42.043-42.043S337,138.164,337,161.385S318.176,203.428,294.957,203.428z"/>
<path style="fill:#C6C5CA;" d="M388.35,146.307l-15.565,2.512c-0.829-5.137-2.163-10.136-3.955-14.936l14.771-5.515
	c-3.617-9.689-8.77-18.678-15.312-26.716l-12.231,9.955c-3.248-3.99-6.888-7.671-10.874-10.973l10.06-12.143
	c-7.994-6.621-16.959-11.845-26.648-15.522l-5.596,14.743c-4.739-1.799-9.721-3.167-14.909-4.044l2.599-15.553l-0.151-0.026
	c-5.179-0.866-10.384-1.3-15.58-1.306v52.559c0.041,0,0.081,0.001,0.122,0.001c0.283,0.001,0.567,0.003,0.85,0.011
	c0.275,0.007,0.548,0.017,0.821,0.029c0.211,0.009,0.423,0.019,0.636,0.031c0.401,0.023,0.8,0.052,1.198,0.086
	c0.07,0.007,0.139,0.012,0.209,0.019c8.151,0.74,15.629,3.805,21.767,8.529l0.004-0.006c0.086,0.066,0.167,0.136,0.253,0.201
	c0.189,0.148,0.376,0.299,0.563,0.451c0.256,0.208,0.51,0.417,0.761,0.631c0.176,0.149,0.349,0.299,0.523,0.451
	c0.157,0.138,0.314,0.276,0.469,0.416c0.285,0.258,0.567,0.519,0.845,0.785c0.117,0.112,0.232,0.226,0.348,0.339
	c0.223,0.217,0.442,0.436,0.659,0.659c0.099,0.101,0.198,0.201,0.296,0.304c0.302,0.314,0.598,0.633,0.889,0.956
	c0.059,0.066,0.118,0.134,0.177,0.199c0.288,0.324,0.572,0.652,0.851,0.985c0.022,0.026,0.043,0.051,0.066,0.078
	c0.323,0.387,0.638,0.781,0.946,1.18c0.001,0.001,0.001,0.002,0.002,0.003c4.447,5.747,7.437,12.675,8.419,20.235l0.006-0.001
	c0.092,0.708,0.16,1.421,0.217,2.137c0.006,0.067,0.01,0.134,0.016,0.2c0.072,0.975,0.11,1.958,0.114,2.946
	c0,0.062,0.002,0.124,0.002,0.186c0,0.042-0.001,0.085-0.001,0.127c-0.001,0.282-0.003,0.563-0.011,0.846
	c-0.007,0.268-0.017,0.536-0.028,0.804c-0.009,0.205-0.018,0.41-0.029,0.614c-0.023,0.415-0.053,0.828-0.089,1.239
	c-0.006,0.063-0.011,0.128-0.017,0.191c-0.735,8.154-3.797,15.635-8.518,21.777l0.006,0.004c-0.067,0.086-0.137,0.169-0.204,0.255
	c-0.152,0.195-0.307,0.387-0.463,0.58c-0.2,0.247-0.403,0.492-0.609,0.735c-0.155,0.183-0.311,0.364-0.469,0.544
	c-0.135,0.154-0.271,0.307-0.407,0.46c-0.26,0.287-0.523,0.572-0.791,0.853c-0.106,0.111-0.214,0.219-0.322,0.329
	c-0.223,0.228-0.449,0.455-0.677,0.678c-0.098,0.096-0.195,0.193-0.294,0.287c-0.317,0.305-0.639,0.604-0.966,0.899
	c-0.058,0.052-0.117,0.104-0.175,0.155c-0.329,0.295-0.664,0.584-1.004,0.868c-0.023,0.02-0.047,0.04-0.071,0.06
	c-5.965,4.973-13.329,8.326-21.414,9.381l0.001,0.006c-0.715,0.093-1.436,0.163-2.16,0.22c-0.063,0.006-0.127,0.01-0.19,0.014
	c-0.976,0.072-1.959,0.11-2.947,0.115c-0.06,0-0.12,0.002-0.18,0.002v52.57c5.06,0.004,10.11-0.396,15.117-1.208l-2.52-15.564
	c5.137-0.831,10.135-2.168,14.935-3.962l5.522,14.769c9.689-3.623,18.676-8.78,26.71-15.325l-9.962-12.226
	c3.989-3.25,7.668-6.891,10.969-10.88l12.148,10.054c6.618-7.996,11.836-16.965,15.509-26.656l-14.747-5.59
	c1.796-4.74,3.162-9.722,4.037-14.911l15.551,2.599l0.019-0.114C389.951,166.771,389.987,156.449,388.35,146.307z"/>
<path style="fill:#D8D7DA;" d="M294.957,103.578v15.766c23.214,0.007,42.03,18.827,42.03,42.042s-18.816,42.035-42.03,42.042v15.766
	c31.921-0.007,57.795-25.886,57.795-57.808S326.877,103.584,294.957,103.578z"/>
<g>
</g>
<g>
</g>
<g>
</g>
<g>
</g>
<g>
</g>
<g>
</g>
<g>
</g>
<g>
</g>
<g>
</g>
<g>
</g>
<g>
</g>
<g>
</g>
<g>
</g>
<g>
</g>
<g>
</g>
</svg>
