<?xml version="1.0" encoding="utf-8"?>
<!-- Generator: Adobe Illustrator 16.0.0, SVG Export Plug-In . SVG Version: 6.00 Build 0)  -->
<!DOCTYPE svg PUBLIC "-//W3C//DTD SVG 1.1//EN" "http://www.w3.org/Graphics/SVG/1.1/DTD/svg11.dtd">
<svg version="1.1" id="Layer_1" xmlns="http://www.w3.org/2000/svg" xmlns:xlink="http://www.w3.org/1999/xlink" x="0px" y="0px"
	 width="628.867px" height="511.34px" viewBox="0 0 628.867 511.34" enable-background="new 0 0 628.867 511.34"
	 xml:space="preserve">
<g opacity="0.5">
	<g>
		<path d="M299.328,494.268c-2.707-3.523-5.469-7.255-8.379-10.863c-3.584-4.446-4.002-4.47-10.242-1.338
			c3.547,2.157,6.721,4.087,9.295,5.649c-0.307,3.249-0.709,6.208-0.822,9.183c-0.076,2.045-0.588,3.466-2.814,3.851
			c-6.891,1.19-13.756,2.557-20.672,3.587c-8.965,1.334-17.971,2.341-26.919,3.642c-2.919,0.424-5.769,1.329-8.818,2.054
			c-0.248-0.463-0.458-1.016-0.8-1.469c-1.022-1.353-2.096-2.665-3.151-3.996c-0.879,1.135-1.615,2.437-2.681,3.354
			c-1.108,0.956-2.459,1.96-3.839,2.217c-6.636,1.229-13.332,2.125-19.978,3.302c-11.511,2.039-23.093,4.699-34.189-1.309
			c-3.707-2.008-7.06-4.786-10.26-7.573c-2.589-2.255-4.771-4.999-7.003-7.636c-1.063-1.255-2.05-2.671-2.687-4.175
			c-4.35-10.284-8.598-20.611-12.876-30.927c-0.179-0.433-0.328-0.875-0.65-1.744c2.364-0.637,4.592-1.237,6.897-1.859
			c-0.158-0.31-0.254-0.815-0.466-0.871c-6.184-1.595-9.278-6.086-12.399-11.377c-5.128-8.695-10.83-17.186-17.305-24.914
			c-5.543-6.614-13.479-10.579-21.307-14.253c-0.93-0.436-2.141-0.739-3.11-0.547c-5.12,1.023-9.667-0.725-14.545-1.958
			c-9.628-2.434-19.461-1.477-29.226,0.521c-6.719,1.375-13.586,2.108-20.418,2.827c-4.977,0.523-10.002,0.693-15.01,0.767
			c-5.347,0.075-6.467-2.159-4.125-6.939c0.669-1.365,0.926-3.85,0.138-4.845c-2.385-3.013-1.655-5.15,0.874-7.345
			c0.522-0.454,0.933-1.037,1.715-1.924c-1.644-1.174-3.125-2.23-4.854-3.467c0.966-1.378,1.892-2.694,2.917-4.153
			c-2.724-2.991-2.55-5.84-0.579-9.4c1.258-2.271,0.854-5.497,1.077-8.305c0.314-3.963,0.586-7.933,0.73-11.905
			c0.049-1.354,0.07-2.983-0.602-4.042c-3.391-5.343-3.729-11.259-3.319-17.224c0.367-5.329,1.347-10.612,1.939-15.927
			c0.125-1.124,0.167-2.715-0.481-3.389c-2.66-2.768-1.584-5.497-0.306-8.244c2.371-5.096,2.846-10.318,2.63-15.967
			c-0.238-6.213,0.83-12.509,1.76-18.705c0.178-1.185,2.218-2.564,3.65-2.973c2.253-0.645,4.727-0.471,7.092-0.764
			c4.547-0.561,6.164-1.934,7.036-6.24c0.684-3.374,0.849-6.87,1.719-10.18c1.448-5.509,2.871-11.185,9.457-13.107
			c2.379-0.694,3.026-2.441,2.562-4.735c-0.253-1.25-0.499-2.499-0.807-4.047c1.253-0.176,2.198-0.177,3.053-0.457
			c1.887-0.615,4.047-0.971,5.526-2.148c3.823-3.041,6.233-14.469,4.336-18.933c-2.617-6.159-0.573-9.272,6.184-9.964
			c1.384-0.142,3.244-1.27,3.84-2.464c2.081-4.167,2.836-8.396-0.05-12.826c-1.094-1.68-1.576-4.436-1.063-6.363
			c1.678-6.304-0.58-11.165-4.587-15.648c-2.302-2.574-4.665-5.098-6.898-7.729c-5.786-6.818-3.832-13.263,1.902-18.949
			c3.48-3.45,5.417-6.156,4.732-12.011c-1.067-9.14,0.328-18.643,1.352-27.917c0.51-4.623,4.077-7.958,7.65-10.877
			c1.663-1.359,3.28-2.776,4.991-4.071c10.282-7.779,13.702-18.483,13.156-30.854c-0.209-4.761,0.672-6.807,5.267-8.326
			c4.31-1.424,7.557-3.802,10.072-7.489c2.179-3.194,5.234-4.635,9.207-4.333c1.73,0.132,3.696-0.004,5.231-0.715
			c3.61-1.674,6.949-1.221,10.277,0.484c5.62,2.879,11.629,2.319,17.522,1.708c2.065-0.214,4.354-1.589,5.873-3.103
			c4.689-4.678,9.873-5.211,15.693-2.772c3.622,1.519,7.286,2.95,10.84,4.614c6.587,3.083,13.388,5.193,20.728,4.237
			c4.899-0.637,8.395,1.443,11.038,5.116c5.835,8.106,11.45,16.37,17.229,24.518c1.059,1.491,2.315,3.687,3.737,3.908
			c3.356,0.52,6.91,0.328,10.286-0.198c0.993-0.153,1.772-2.334,2.454-3.686c1.268-2.51,3.113-3.774,5.778-2.42
			c7.306,3.71,13.642,1.571,19.371-3.271c10.561-8.952,20.639-4.773,30.604,0.944c6.801,3.903,13.389,8.18,20.096,12.248
			c6.942,4.211,14.767,5.134,22.608,5.862c8.072,0.748,16.146,1.526,24.234,1.942c2.078,0.106,4.555-0.629,6.262-1.821
			c3.205-2.239,6.297-4.814,8.883-7.738c7.982-9.028,17.216-15.255,29.814-15.272c2.043-0.002,4.072-1.166,6.127-1.726
			c1.93-0.526,3.881-1.369,5.824-1.377c11.576-0.05,23.209-0.548,34.721,0.39c9.283,0.756,18.43,3.291,27.619,5.135
			c1.111,0.224,2.469,0.811,3.084,1.677c2.457,3.451,5.754,3.367,9.502,3.254c3.758-0.112,7.545,0.798,11.316,1.245
			c2.779,0.33,4.854-0.728,6.279-3.151c5.191-8.819,13.947-13.614,22.178-18.718c3.82-2.369,8.953-3.457,13.305,0.366
			c0.586,0.516,1.49,0.682,2.264,0.973c2.229,0.84,3.695,2.232,3.289,4.816c-0.436,2.752,0.643,4.676,2.621,6.591
			c2.574,2.493,4.592,5.553,7.098,8.128c3.172,3.259,12.143,4.876,16.559,3.257c3.826-1.405,4.387-1.033,4.324,2.969
			c-0.049,3.01,0.982,6.324-2.289,8.478c-0.174,0.115-0.35,0.417-0.33,0.61c0.443,3.659,0.891,7.319,1.412,10.967
			c0.057,0.393,0.549,0.754,0.895,1.067c2.619,2.376,5.252,4.738,7.883,7.104c-0.172,0.316-0.342,0.631-0.512,0.946
			c0.82-0.553,1.641-1.106,2.568-1.731c0.201,0.263,0.559,0.513,0.559,0.763c0.006,2.036,0.395,3.768,2.697,4.433
			c0.369,0.107,0.848,0.657,0.871,1.028c0.287,4.471,3.365,4.435,6.787,4.908c2.918,0.403,5.836,1.877,8.404,3.451
			c3.129,1.918,5.893,4.435,9.023,6.854c-0.807,0.911-1.715,1.673-2.26,2.64c-0.479,0.85-1.096,2.37-0.717,2.84
			c3.789,4.704,0.32,8.925-1.242,12.833c-1.027,2.572-0.889,4.132,0.457,6.094c3.162,4.607,2.775,7.185-1.857,10.439
			c-4.482,3.146-8.895,6.511-13.752,8.952c-2.35,1.179-5.758,1.01-8.498,0.483c-6.088-1.17-6.131-1.473-9.244,3.896
			c-3.154,5.441-5.939,11.104-9.207,16.472c-1.828,3.007-4.428,5.535-6.457,8.437c-1.014,1.451-1.898,3.193-2.189,4.915
			c-0.971,5.724-1.355,11.561-2.596,17.217c-0.422,1.933-2.377,4.069-4.205,5.05c-4.842,2.602-4.6,8.136-7.439,11.837
			c-0.346,0.451,0.488,1.954,0.969,2.867c3.246,6.146-0.816,15.029-7.586,16.516c-7.254,1.596-9.332,4.584-10.205,11.891
			c-0.926,7.766-2.6,15.455-4.256,23.109c-0.826,3.815-8.26,9.104-12.053,8.703c-3.422-0.361-5.078,0.982-6.607,3.967
			c-1.275,2.483-3.963,4.205-5.588,6.567c-1.252,1.815-2.332,4.042-2.586,6.19c-0.422,3.585-0.934,6.849-4.346,8.889
			c-0.439,0.263-0.92,0.981-0.879,1.441c0.486,5.253-3.047,8.879-5.254,13.007c-2.215,4.145-3.988,8.051-2.984,13.175
			c0.463,2.359-1.773,5.374-3.1,7.927c-1.971,3.79-6.182,7.581-5.922,11.111c0.496,6.696-4.061,8.241-7.732,11.104
			c-4.541,3.537-7.389,7.793-7.533,13.885c-0.047,1.979-1.977,4.002-3.285,5.835c-1.328,1.86-2.807,3.666-4.492,5.194
			c-1.088,0.988-2.676,2.024-4.025,2.006c-3.861-0.054-7.725-0.631-11.584-1.003c-0.043,0.354-0.086,0.707-0.129,1.062
			c-0.188-0.132-0.541-0.251-0.549-0.394c-0.285-5.13-3.338-8.043-7.711-10.16c-3.979-1.925-6.535-5.007-6.844-9.71
			c-0.068-1.034-0.896-2.248-1.73-2.97c-3.609-3.121-7.354-6.091-11.262-9.288c-0.09,0.63-0.332,1.802-0.416,2.984
			c-0.494,7.068-2.127,8.937-9.09,10.063c-1.52,0.246-3.1,0.1-4.641,0.249c-2.57,0.25-3.543-0.72-3.684-3.418
			c-0.094-1.795-1.369-3.528-2.271-5.657c-4.334,3.991-7.989,7.555-11.879,10.84c-1.392,1.175-3.272,2.086-5.063,2.406
			c-3.885,0.698-5.274,3.095-5.746,6.655c-0.274,2.095-0.534,4.446-1.664,6.095c-0.983,1.44-3.09,2.691-4.842,2.917
			c-4.524,0.581-8.344,1.784-10.205,6.436c-0.248,0.62-0.819,1.351-1.41,1.558c-5.469,1.925-7.784,7.793-12.272,10.315
			c-5.217,2.934-7.924,8.479-13.387,10.833c-2.416,1.042-3.423,2.854-2.492,5.809c0.461,1.463-0.351,3.439-0.901,5.078
			c-0.746,2.218-0.838,4.153,0.987,5.897c1.856,1.772,1.849,3.779,1.197,6.222c-1.363,5.151-2.134,10.461-3.529,15.603
			c-0.79,2.912-1.926,5.906-3.627,8.364C310.082,479.99,304.736,486.943,299.328,494.268z"/>
	</g>
</g>
<g>
	<path fill="#A3A2A2" d="M306.776,482.839c-2.707-3.523-5.469-7.255-8.379-10.864c-3.584-4.445-4.002-4.469-10.242-1.338
		c3.547,2.158,6.721,4.087,9.295,5.65c-0.307,3.249-0.709,6.208-0.822,9.182c-0.076,2.045-0.588,3.466-2.814,3.852
		c-6.891,1.189-13.756,2.557-20.672,3.587c-8.941,1.334-17.933,2.341-26.881,3.642c-2.919,0.423-5.769,1.329-8.818,2.053
		c-0.248-0.463-0.458-1.015-0.8-1.469c-1.022-1.352-2.096-2.665-3.151-3.996c-0.879,1.136-1.615,2.438-2.681,3.355
		c-1.108,0.956-2.459,1.96-3.839,2.217c-6.636,1.229-13.332,2.125-19.978,3.301c-11.511,2.04-23.093,4.7-34.189-1.308
		c-3.707-2.008-7.06-4.786-10.26-7.573c-2.589-2.255-4.771-4.999-7.003-7.636c-1.063-1.255-2.05-2.671-2.687-4.175
		c-4.35-10.284-8.598-20.611-12.876-30.928c-0.179-0.432-0.328-0.875-0.65-1.743c2.364-0.638,4.592-1.237,6.897-1.859
		c-0.158-0.31-0.254-0.816-0.466-0.871c-6.184-1.595-9.278-6.086-12.399-11.377c-5.128-8.696-10.83-17.187-17.305-24.914
		c-5.543-6.615-13.479-10.579-21.307-14.253c-0.93-0.436-2.141-0.74-3.11-0.547c-5.12,1.022-9.667-0.726-14.545-1.958
		c-9.628-2.435-19.461-1.478-29.226,0.52c-6.719,1.375-13.586,2.109-20.418,2.827c-4.977,0.524-10.002,0.694-15.01,0.768
		c-5.347,0.074-6.467-2.159-4.125-6.939c0.669-1.366,0.926-3.85,0.138-4.845c-2.385-3.014-1.655-5.15,0.874-7.346
		c0.522-0.453,0.933-1.036,1.715-1.924c-1.644-1.173-3.125-2.229-4.854-3.466c0.966-1.378,1.892-2.695,2.917-4.154
		c-2.724-2.99-2.55-5.84-0.579-9.399c1.258-2.272,0.854-5.497,1.077-8.306c0.314-3.963,0.586-7.932,0.73-11.904
		c0.049-1.354,0.07-2.984-0.602-4.042c-3.391-5.343-3.729-11.259-3.319-17.225c0.367-5.329,1.347-10.611,1.939-15.927
		c0.125-1.124,0.167-2.714-0.481-3.388c-2.66-2.769-1.584-5.497-0.306-8.244c2.371-5.097,2.846-10.317,2.63-15.967
		c-0.238-6.214,0.83-12.509,1.76-18.705c0.178-1.185,2.218-2.565,3.65-2.973c2.253-0.644,4.727-0.471,7.092-0.764
		c4.547-0.56,6.164-1.933,7.036-6.24c0.684-3.374,0.849-6.87,1.719-10.188c1.448-5.521,2.871-11.217,9.457-13.14
		c2.379-0.694,3.026-2.441,2.562-4.735c-0.253-1.25-0.499-2.499-0.807-4.047c1.253-0.176,2.198-0.177,3.053-0.457
		c1.887-0.615,4.047-0.971,5.526-2.148c3.823-3.041,6.233-14.469,4.336-18.933c-2.617-6.159-0.573-9.272,6.184-9.964
		c1.384-0.142,3.244-1.27,3.84-2.464c2.081-4.167,2.836-8.396-0.05-12.826c-1.094-1.68-1.576-4.437-1.063-6.363
		c1.678-6.304-0.58-11.165-4.587-15.648c-2.302-2.574-4.665-5.098-6.898-7.729c-5.786-6.818-3.832-13.263,1.902-18.949
		c3.48-3.45,5.417-6.156,4.732-12.011c-1.067-9.14,0.328-18.643,1.352-27.917c0.51-4.623,4.077-7.958,7.65-10.877
		c1.663-1.359,3.28-2.776,4.991-4.071c10.282-7.779,13.702-18.483,13.156-30.854c-0.209-4.761,0.672-6.807,5.267-8.326
		c4.31-1.424,7.557-3.802,10.072-7.489c2.179-3.194,5.234-4.635,9.207-4.333c1.73,0.132,3.696-0.004,5.231-0.715
		c3.61-1.674,6.949-1.221,10.277,0.484c5.62,2.879,11.629,2.319,17.522,1.708c2.065-0.214,4.354-1.589,5.873-3.103
		c4.689-4.678,9.873-5.211,15.693-2.772c3.622,1.519,7.286,2.95,10.84,4.614c6.587,3.083,13.388,5.193,20.728,4.237
		c4.899-0.637,8.395,1.443,11.038,5.116c5.835,8.106,11.45,16.37,17.229,24.518c1.059,1.491,2.315,3.687,3.737,3.908
		c3.356,0.52,6.91,0.328,10.286-0.198c0.993-0.153,1.772-2.334,2.454-3.686c1.268-2.51,3.113-3.774,5.778-2.42
		c7.306,3.71,13.631,1.571,19.34-3.271c10.553-8.952,20.631-4.773,30.596,0.944c6.801,3.903,13.389,8.18,20.095,12.248
		c6.943,4.211,14.767,5.134,22.609,5.862c8.072,0.748,16.146,1.526,24.234,1.942c2.078,0.106,4.555-0.629,6.262-1.821
		c3.205-2.239,6.297-4.814,8.883-7.738c7.982-9.028,17.215-15.255,29.813-15.272c2.043-0.002,4.074-1.166,6.127-1.726
		c1.932-0.526,3.883-1.369,5.824-1.377c11.578-0.05,23.209-0.548,34.723,0.39c9.281,0.756,18.43,3.291,27.617,5.135
		c1.113,0.224,2.471,0.811,3.084,1.677c2.457,3.451,5.756,3.367,9.504,3.254c3.758-0.112,7.545,0.798,11.316,1.245
		c2.779,0.33,4.854-0.728,6.279-3.151c5.191-8.819,13.947-13.614,22.178-18.718c3.82-2.369,8.953-3.457,13.303,0.366
		c0.586,0.516,1.492,0.682,2.266,0.973c2.229,0.84,3.693,2.232,3.289,4.816c-0.436,2.752,0.643,4.676,2.619,6.591
		c2.574,2.493,4.594,5.553,7.1,8.128c3.172,3.259,12.143,4.876,16.559,3.257c3.826-1.405,4.387-1.033,4.324,2.969
		c-0.049,3.01,0.982,6.324-2.289,8.478c-0.174,0.115-0.35,0.417-0.33,0.61c0.443,3.659,0.891,7.319,1.412,10.967
		c0.057,0.393,0.549,0.754,0.895,1.067c2.619,2.376,5.252,4.738,7.883,7.104c-0.172,0.316-0.342,0.631-0.512,0.946
		c0.82-0.553,1.641-1.106,2.568-1.731c0.201,0.263,0.559,0.513,0.559,0.763c0.006,2.036,0.395,3.768,2.697,4.433
		c0.369,0.107,0.848,0.657,0.871,1.028c0.287,4.471,3.365,4.435,6.787,4.908c2.918,0.403,5.836,1.877,8.404,3.451
		c3.129,1.918,5.893,4.435,9.021,6.854c-0.805,0.911-1.713,1.673-2.258,2.64c-0.479,0.85-1.096,2.37-0.717,2.84
		c3.789,4.704,0.32,8.925-1.242,12.833c-1.029,2.572-0.889,4.132,0.457,6.094c3.162,4.607,2.775,7.185-1.859,10.439
		c-4.48,3.146-8.893,6.511-13.752,8.952c-2.348,1.179-5.756,1.01-8.498,0.483c-6.088-1.17-6.131-1.473-9.244,3.896
		c-3.152,5.441-5.938,11.104-9.205,16.472c-1.828,3.007-4.43,5.535-6.457,8.437c-1.016,1.451-1.898,3.193-2.189,4.915
		c-0.971,5.724-1.355,11.561-2.596,17.217c-0.422,1.933-2.377,4.069-4.205,5.05c-4.842,2.602-4.602,8.136-7.439,11.837
		c-0.346,0.451,0.488,1.954,0.969,2.867c3.246,6.146-0.816,15.047-7.586,16.537c-7.254,1.596-9.332,4.596-10.205,11.91
		c-0.926,7.766-2.6,15.455-4.256,23.109c-0.826,3.814-8.26,9.104-12.053,8.703c-3.422-0.361-5.078,0.982-6.607,3.966
		c-1.275,2.483-3.963,4.206-5.588,6.567c-1.252,1.816-2.332,4.043-2.586,6.191c-0.422,3.584-0.934,6.848-4.346,8.889
		c-0.439,0.262-0.92,0.981-0.879,1.441c0.486,5.253-3.047,8.879-5.254,13.006c-2.215,4.146-3.988,8.051-2.984,13.175
		c0.463,2.36-1.773,5.374-3.1,7.928c-1.973,3.79-6.184,7.581-5.922,11.11c0.496,6.697-4.063,8.242-7.732,11.104
		c-4.541,3.537-7.389,7.793-7.533,13.885c-0.047,1.979-1.977,4.002-3.285,5.835c-1.328,1.86-2.807,3.666-4.492,5.194
		c-1.088,0.987-2.676,2.023-4.025,2.006c-3.863-0.054-7.725-0.631-11.584-1.003c-0.043,0.353-0.086,0.707-0.129,1.061
		c-0.189-0.131-0.541-0.251-0.549-0.393c-0.285-5.13-3.338-8.043-7.711-10.16c-3.979-1.925-6.535-5.007-6.844-9.71
		c-0.068-1.035-0.896-2.248-1.73-2.97c-3.611-3.121-7.355-6.092-11.262-9.288c-0.09,0.63-0.332,1.802-0.416,2.983
		c-0.494,7.069-2.127,8.938-9.09,10.064c-1.52,0.246-3.1,0.099-4.641,0.249c-2.57,0.25-3.543-0.72-3.684-3.418
		c-0.094-1.795-1.369-3.529-2.271-5.657c-4.333,3.991-7.989,7.554-11.879,10.839c-1.391,1.175-3.272,2.086-5.063,2.407
		c-3.885,0.698-5.275,3.094-5.746,6.655c-0.275,2.095-0.535,4.445-1.664,6.095c-0.984,1.439-3.09,2.691-4.842,2.917
		c-4.525,0.581-8.344,1.784-10.205,6.435c-0.248,0.62-0.82,1.352-1.41,1.559c-5.469,1.925-7.785,7.793-12.272,10.314
		c-5.218,2.935-7.925,8.48-13.388,10.833c-2.416,1.042-3.422,2.855-2.492,5.81c0.462,1.463-0.35,3.438-0.901,5.078
		c-0.745,2.218-0.838,4.152,0.988,5.896c1.856,1.773,1.848,3.78,1.196,6.223c-1.362,5.15-2.133,10.461-3.528,15.603
		c-0.791,2.912-1.927,5.906-3.627,8.364C317.531,468.563,312.184,475.515,306.776,482.839z"/>
</g>
</svg>
